<svg width="325" height="233" viewBox="0 0 325 233" fill="none" xmlns="http://www.w3.org/2000/svg">
<g clip-path="url(#clip0_38_1476)">
<rect width="325" height="233" rx="36" fill="#85A154"/>
<mask id="mask0_38_1476" style="mask-type:luminance" maskUnits="userSpaceOnUse" x="-275" y="-60" width="563" height="616">
<path d="M57.5744 -59.9998L-274.584 236.109L-44.6709 555.966L287.488 259.857L57.5744 -59.9998Z" fill="white"/>
</mask>
<g mask="url(#mask0_38_1476)">
<path fill-rule="evenodd" clip-rule="evenodd" d="M-115.176 96.6569C-126.685 112.118 -138.451 133.015 -144.428 148.6C-149.026 160.594 -149.407 163.264 -146.91 166.035C-144.079 169.178 -40.7036 253.541 -30.5109 261.029L-25.5488 264.674L17.6954 224.771L12.1104 181.704C9.03825 158.017 3.26533 113.476 -0.719566 82.7228L-7.96415 26.8068L-20.4137 30.4789C-45.0959 37.7579 -60.7546 46.7154 -85.3641 67.6364C-100.774 80.7379 -110.047 89.7632 -115.176 96.6569ZM17.6275 117.24C24.1904 167.855 29.7218 209.334 29.9179 209.416C30.1148 209.499 46.6079 185.091 66.5699 155.175C119.487 75.8687 130.756 58.8204 130.852 57.9271C131.053 56.0775 103.485 40.39 91.4526 35.5075C67.6668 25.8511 31.5022 20.7573 11.408 24.2271L5.69543 25.2148L17.6275 117.24ZM-167.44 207.764C-158.348 214.792 -152.185 220.403 -152.308 221.545C-152.385 222.264 -154.501 223.291 -157.009 223.824C-164.299 225.378 -172.969 231.372 -178.85 238.926C-181.846 242.775 -184.368 246.575 -184.454 247.371C-184.539 248.167 -174.222 250.02 -161.526 251.49C-148.831 252.96 -138.524 254.682 -138.622 255.316C-138.721 255.952 -147.765 281.365 -158.719 311.791C-169.672 342.218 -178.857 367.745 -179.131 368.518C-179.404 369.291 -175.509 373.171 -170.475 377.142L-161.323 384.36L-36.9348 274.753L-43.961 269.289C-47.8261 266.284 -67.2622 250.614 -87.1512 234.465C-107.041 218.318 -126.189 203.682 -129.703 201.942C-140.457 196.618 -153.855 197.169 -166.015 203.434C-169.596 205.279 -169.812 205.931 -167.44 207.764ZM-125.212 290.672C-115.653 294.054 -117.175 308.947 -127.304 311.127C-132.955 312.343 -137.388 308.433 -137.908 301.768C-138.52 293.949 -132.017 288.265 -125.212 290.672ZM99.6091 130.719C78.238 163.024 56.4299 195.848 51.1479 203.664C43.5681 214.878 42.192 217.913 44.6135 218.071C46.3017 218.179 69.2143 214.385 95.5312 209.641C121.848 204.896 158.045 198.373 175.966 195.146C193.89 191.918 208.526 188.943 208.493 188.531C208.462 188.12 206.974 181.326 205.189 173.43C198.411 143.458 181.09 109.044 161.531 86.6914C147.28 70.4053 143.28 67.1799 140.619 69.8355C139.435 71.0168 120.98 98.4163 99.6091 130.719ZM-74.02 330.932C-78.3619 340.068 -77.8582 346.875 -72.1421 356.366C-67.3144 364.38 -66.3588 365.073 -58.4349 366.29C-53.5117 367.046 -47.776 366.331 -44.8454 364.593L-39.7754 361.586L-58.4372 333.813L-38.3983 330.36C-27.3766 328.461 -17.9367 326.58 -17.4173 326.181C-16.2362 325.271 7.34192 260.34 7.75273 256.867C8.26367 252.533 -70.7937 324.139 -74.02 330.932ZM10.3803 291.596C1.41358 316.978 -6.12896 341.378 -6.38098 345.821C-7.40887 363.97 13.5681 377.077 26.1944 366.175C29.1957 363.583 28.9523 362.963 20.1454 350.711L10.9704 337.947L61.7547 292.674L44.4842 268.647C34.9853 255.432 27.0942 244.808 26.9493 245.036C26.8034 245.262 19.3474 266.217 10.3803 291.596ZM92.5885 310.506C134.709 369.104 146.501 384.672 147.844 383.461C154.286 377.663 174.453 351.416 180.782 340.59C201.032 305.956 212.426 261.015 211.394 219.839C211.107 208.346 210.444 205.528 207.975 205.365C204.682 205.147 46.0774 233.464 41.6833 235.055C39.3756 235.892 45.7921 245.402 92.5885 310.506ZM-56.2064 416.81C-53.9073 420.008 -22.7856 430.458 -8.22735 432.918C41.0236 441.246 82.4274 431.295 127.323 400.341L135.229 394.891L109.551 359.168L90.0854 375.168C50.0147 408.1 5.6695 422.472 -40.1429 417.379C-49.5007 416.339 -56.729 416.083 -56.2064 416.81Z" fill="#B1CF77"/>
</g>
</g>
<defs>
<clipPath id="clip0_38_1476">
<rect width="325" height="233" rx="36" fill="white"/>
</clipPath>
</defs>
</svg>
