<svg width="627" height="213" viewBox="0 0 627 213" fill="none" xmlns="http://www.w3.org/2000/svg">
<g clip-path="url(#clip0_38_301)">
<rect width="627" height="213" rx="48" fill="#D3E1BA"/>
<path d="M81.944 213V82.632L41.288 97.528L34.792 78.04L103.448 52.84H105.24V213H81.944Z" fill="#9DB869"/>
<path d="M143.642 152.455V167H141.881V154.017H134.551V167H132.79V152.455H143.642ZM151.4 167.227C150.415 167.227 149.551 166.993 148.807 166.524C148.069 166.055 147.491 165.4 147.074 164.557C146.662 163.714 146.456 162.729 146.456 161.602C146.456 160.466 146.662 159.474 147.074 158.626C147.491 157.779 148.069 157.121 148.807 156.652C149.551 156.183 150.415 155.949 151.4 155.949C152.384 155.949 153.246 156.183 153.985 156.652C154.728 157.121 155.306 157.779 155.718 158.626C156.134 159.474 156.343 160.466 156.343 161.602C156.343 162.729 156.134 163.714 155.718 164.557C155.306 165.4 154.728 166.055 153.985 166.524C153.246 166.993 152.384 167.227 151.4 167.227ZM151.4 165.722C152.148 165.722 152.763 165.53 153.246 165.146C153.729 164.763 154.087 164.259 154.319 163.634C154.551 163.009 154.667 162.331 154.667 161.602C154.667 160.873 154.551 160.194 154.319 159.564C154.087 158.934 153.729 158.425 153.246 158.037C152.763 157.649 152.148 157.455 151.4 157.455C150.651 157.455 150.036 157.649 149.553 158.037C149.07 158.425 148.712 158.934 148.48 159.564C148.248 160.194 148.132 160.873 148.132 161.602C148.132 162.331 148.248 163.009 148.48 163.634C148.712 164.259 149.07 164.763 149.553 165.146C150.036 165.53 150.651 165.722 151.4 165.722ZM158.219 164.216H160.009C160.047 164.708 160.27 165.082 160.677 165.338C161.089 165.594 161.624 165.722 162.282 165.722C162.954 165.722 163.53 165.584 164.008 165.31C164.486 165.03 164.725 164.58 164.725 163.96C164.725 163.596 164.635 163.278 164.455 163.009C164.275 162.734 164.022 162.521 163.695 162.369C163.369 162.218 162.983 162.142 162.538 162.142H160.663V160.636H162.538C163.205 160.636 163.698 160.485 164.015 160.182C164.337 159.879 164.498 159.5 164.498 159.045C164.498 158.558 164.325 158.167 163.979 157.874C163.634 157.575 163.144 157.426 162.509 157.426C161.87 157.426 161.337 157.571 160.911 157.859C160.485 158.143 160.26 158.51 160.237 158.96H158.475C158.494 158.373 158.674 157.855 159.015 157.405C159.356 156.95 159.82 156.595 160.407 156.339C160.994 156.079 161.666 155.949 162.424 155.949C163.191 155.949 163.856 156.084 164.42 156.354C164.988 156.619 165.426 156.981 165.734 157.44C166.046 157.895 166.202 158.411 166.202 158.989C166.202 159.604 166.03 160.101 165.684 160.48C165.338 160.859 164.905 161.129 164.384 161.29V161.403C164.796 161.432 165.154 161.564 165.457 161.801C165.764 162.033 166.004 162.339 166.174 162.717C166.344 163.091 166.43 163.506 166.43 163.96C166.43 164.623 166.252 165.201 165.897 165.693C165.542 166.181 165.054 166.56 164.434 166.83C163.814 167.095 163.106 167.227 162.31 167.227C161.539 167.227 160.847 167.102 160.237 166.851C159.626 166.595 159.14 166.242 158.781 165.793C158.425 165.338 158.238 164.812 158.219 164.216ZM168.784 167V156.091H173.244C174.419 156.091 175.351 156.356 176.043 156.886C176.734 157.417 177.08 158.117 177.08 158.989C177.08 159.652 176.883 160.165 176.49 160.53C176.097 160.89 175.593 161.134 174.977 161.261C175.38 161.318 175.77 161.46 176.149 161.688C176.533 161.915 176.85 162.227 177.101 162.625C177.352 163.018 177.477 163.501 177.477 164.074C177.477 164.633 177.335 165.132 177.051 165.572C176.767 166.013 176.36 166.361 175.83 166.616C175.299 166.872 174.665 167 173.926 167H168.784ZM170.375 165.466H173.926C174.504 165.466 174.956 165.329 175.283 165.054C175.609 164.779 175.773 164.405 175.773 163.932C175.773 163.368 175.609 162.926 175.283 162.604C174.956 162.277 174.504 162.114 173.926 162.114H170.375V165.466ZM170.375 160.665H173.244C173.694 160.665 174.08 160.603 174.402 160.48C174.724 160.352 174.97 160.172 175.141 159.94C175.316 159.704 175.403 159.424 175.403 159.102C175.403 158.643 175.212 158.283 174.828 158.023C174.445 157.758 173.917 157.625 173.244 157.625H170.375V160.665ZM184.446 167.227C183.462 167.227 182.597 166.993 181.854 166.524C181.115 166.055 180.538 165.4 180.121 164.557C179.709 163.714 179.503 162.729 179.503 161.602C179.503 160.466 179.709 159.474 180.121 158.626C180.538 157.779 181.115 157.121 181.854 156.652C182.597 156.183 183.462 155.949 184.446 155.949C185.431 155.949 186.293 156.183 187.032 156.652C187.775 157.121 188.353 157.779 188.765 158.626C189.181 159.474 189.39 160.466 189.39 161.602C189.39 162.729 189.181 163.714 188.765 164.557C188.353 165.4 187.775 166.055 187.032 166.524C186.293 166.993 185.431 167.227 184.446 167.227ZM184.446 165.722C185.194 165.722 185.81 165.53 186.293 165.146C186.776 164.763 187.133 164.259 187.365 163.634C187.597 163.009 187.713 162.331 187.713 161.602C187.713 160.873 187.597 160.194 187.365 159.564C187.133 158.934 186.776 158.425 186.293 158.037C185.81 157.649 185.194 157.455 184.446 157.455C183.698 157.455 183.083 157.649 182.6 158.037C182.117 158.425 181.759 158.934 181.527 159.564C181.295 160.194 181.179 160.873 181.179 161.602C181.179 162.331 181.295 163.009 181.527 163.634C181.759 164.259 182.117 164.763 182.6 165.146C183.083 165.53 183.698 165.722 184.446 165.722ZM199.249 160.778V162.341H193.227V160.778H199.249ZM193.624 156.091V167H191.948V156.091H193.624ZM200.528 156.091V167H198.852V156.091H200.528ZM205.265 164.528L210.521 156.091H212.452V167H210.776V158.562L205.549 167H203.589V156.091H205.265V164.528ZM214.038 157.653V156.091H222.902V157.653H219.322V167H217.646V157.653H214.038ZM229.354 167.227C228.303 167.227 227.396 166.995 226.634 166.531C225.876 166.062 225.292 165.409 224.88 164.571C224.472 163.728 224.269 162.748 224.269 161.631C224.269 160.513 224.472 159.528 224.88 158.676C225.292 157.819 225.864 157.152 226.598 156.673C227.337 156.19 228.199 155.949 229.184 155.949C229.752 155.949 230.313 156.044 230.867 156.233C231.421 156.422 231.925 156.73 232.38 157.156C232.834 157.578 233.196 158.136 233.466 158.832C233.736 159.528 233.871 160.385 233.871 161.403V162.114H225.462V160.665H232.167C232.167 160.049 232.043 159.5 231.797 159.017C231.556 158.534 231.21 158.153 230.76 157.874C230.315 157.594 229.79 157.455 229.184 157.455C228.516 157.455 227.938 157.62 227.451 157.952C226.968 158.278 226.596 158.705 226.336 159.23C226.075 159.756 225.945 160.319 225.945 160.92V161.886C225.945 162.71 226.087 163.409 226.371 163.982C226.66 164.55 227.06 164.983 227.571 165.281C228.083 165.575 228.677 165.722 229.354 165.722C229.794 165.722 230.192 165.66 230.547 165.537C230.907 165.409 231.217 165.22 231.478 164.969C231.738 164.713 231.939 164.396 232.081 164.017L233.701 164.472C233.53 165.021 233.244 165.504 232.841 165.92C232.439 166.332 231.942 166.654 231.35 166.886C230.758 167.114 230.093 167.227 229.354 167.227ZM243.722 164.528L248.978 156.091H250.909V167H249.233V158.562L244.006 167H242.046V156.091H243.722V164.528ZM253.013 167V165.438H253.411C253.738 165.438 254.01 165.374 254.228 165.246C254.446 165.113 254.621 164.884 254.754 164.557C254.891 164.225 254.995 163.766 255.066 163.179C255.142 162.587 255.196 161.834 255.229 160.92L255.428 156.091H262.701V167H261.025V157.653H257.019L256.849 161.545C256.811 162.44 256.73 163.229 256.607 163.911C256.489 164.588 256.307 165.156 256.06 165.615C255.819 166.074 255.497 166.42 255.094 166.652C254.692 166.884 254.188 167 253.582 167H253.013ZM267.452 164.528L272.708 156.091H274.64V167H272.964V158.562L267.737 167H265.776V156.091H267.452V164.528ZM290.636 160.778V162.341H284.613V160.778H290.636ZM285.011 156.091V167H283.335V156.091H285.011ZM291.914 156.091V167H290.238V156.091H291.914ZM298.186 167.256C297.494 167.256 296.867 167.125 296.304 166.865C295.74 166.6 295.293 166.219 294.961 165.722C294.63 165.22 294.464 164.614 294.464 163.903C294.464 163.278 294.587 162.772 294.833 162.384C295.08 161.991 295.409 161.683 295.821 161.46C296.233 161.238 296.687 161.072 297.184 160.963C297.686 160.849 298.19 160.759 298.697 160.693C299.36 160.608 299.897 160.544 300.309 160.501C300.726 160.454 301.029 160.376 301.218 160.267C301.413 160.158 301.51 159.969 301.51 159.699V159.642C301.51 158.941 301.318 158.397 300.934 158.009C300.556 157.62 299.98 157.426 299.208 157.426C298.408 157.426 297.781 157.601 297.326 157.952C296.872 158.302 296.552 158.676 296.368 159.074L294.777 158.506C295.061 157.843 295.44 157.327 295.913 156.957C296.391 156.583 296.912 156.323 297.475 156.176C298.044 156.025 298.602 155.949 299.152 155.949C299.502 155.949 299.904 155.991 300.359 156.077C300.818 156.157 301.261 156.325 301.687 156.581C302.118 156.837 302.475 157.223 302.76 157.739C303.044 158.255 303.186 158.946 303.186 159.812V167H301.51V165.523H301.424C301.311 165.759 301.121 166.013 300.856 166.283C300.591 166.553 300.238 166.782 299.798 166.972C299.358 167.161 298.82 167.256 298.186 167.256ZM298.441 165.75C299.104 165.75 299.663 165.62 300.118 165.359C300.577 165.099 300.922 164.763 301.154 164.351C301.391 163.939 301.51 163.506 301.51 163.051V161.517C301.439 161.602 301.282 161.68 301.041 161.751C300.804 161.818 300.529 161.877 300.217 161.929C299.909 161.976 299.609 162.019 299.315 162.057C299.026 162.09 298.792 162.118 298.612 162.142C298.176 162.199 297.769 162.291 297.39 162.419C297.016 162.542 296.713 162.729 296.481 162.98C296.254 163.226 296.14 163.562 296.14 163.989C296.14 164.571 296.356 165.011 296.787 165.31C297.222 165.603 297.774 165.75 298.441 165.75ZM306.245 167V156.091H314.825V167H313.148V157.653H307.921V167H306.245ZM319.562 164.528L324.817 156.091H326.749V167H325.073V158.562L319.846 167H317.886V156.091H319.562V164.528ZM329.819 156.091H331.495V165.438H335.615V156.091H337.291V165.438H341.41V156.091H343.086V167H329.819V156.091ZM347.824 164.528L353.079 156.091H355.011V167H353.335V158.562L348.108 167H346.147V156.091H347.824V164.528ZM356.597 157.653V156.091H365.46V157.653H361.881V167H360.205V157.653H356.597ZM371.913 167.227C370.862 167.227 369.955 166.995 369.192 166.531C368.435 166.062 367.85 165.409 367.438 164.571C367.031 163.728 366.827 162.748 366.827 161.631C366.827 160.513 367.031 159.528 367.438 158.676C367.85 157.819 368.423 157.152 369.157 156.673C369.896 156.19 370.757 155.949 371.742 155.949C372.31 155.949 372.871 156.044 373.425 156.233C373.979 156.422 374.484 156.73 374.938 157.156C375.393 157.578 375.755 158.136 376.025 158.832C376.295 159.528 376.43 160.385 376.43 161.403V162.114H368.021V160.665H374.725C374.725 160.049 374.602 159.5 374.356 159.017C374.114 158.534 373.769 158.153 373.319 157.874C372.874 157.594 372.348 157.455 371.742 157.455C371.075 157.455 370.497 157.62 370.009 157.952C369.526 158.278 369.155 158.705 368.894 159.23C368.634 159.756 368.504 160.319 368.504 160.92V161.886C368.504 162.71 368.646 163.409 368.93 163.982C369.219 164.55 369.619 164.983 370.13 165.281C370.641 165.575 371.236 165.722 371.913 165.722C372.353 165.722 372.751 165.66 373.106 165.537C373.466 165.409 373.776 165.22 374.036 164.969C374.297 164.713 374.498 164.396 374.64 164.017L376.259 164.472C376.089 165.021 375.802 165.504 375.4 165.92C374.997 166.332 374.5 166.654 373.908 166.886C373.317 167.114 372.651 167.227 371.913 167.227ZM384.604 167V156.091H389.065C390.239 156.091 391.172 156.356 391.863 156.886C392.554 157.417 392.9 158.117 392.9 158.989C392.9 159.652 392.703 160.165 392.31 160.53C391.917 160.89 391.413 161.134 390.798 161.261C391.2 161.318 391.591 161.46 391.969 161.688C392.353 161.915 392.67 162.227 392.921 162.625C393.172 163.018 393.298 163.501 393.298 164.074C393.298 164.633 393.156 165.132 392.871 165.572C392.587 166.013 392.18 166.361 391.65 166.616C391.12 166.872 390.485 167 389.746 167H384.604ZM386.195 165.466H389.746C390.324 165.466 390.776 165.329 391.103 165.054C391.43 164.779 391.593 164.405 391.593 163.932C391.593 163.368 391.43 162.926 391.103 162.604C390.776 162.277 390.324 162.114 389.746 162.114H386.195V165.466ZM386.195 160.665H389.065C389.514 160.665 389.9 160.603 390.222 160.48C390.544 160.352 390.79 160.172 390.961 159.94C391.136 159.704 391.224 159.424 391.224 159.102C391.224 158.643 391.032 158.283 390.648 158.023C390.265 157.758 389.737 157.625 389.065 157.625H386.195V160.665ZM401.46 167V156.091H410.039V167H408.363V157.653H403.136V167H401.46ZM417.532 167.227C416.547 167.227 415.683 166.993 414.94 166.524C414.201 166.055 413.624 165.4 413.207 164.557C412.795 163.714 412.589 162.729 412.589 161.602C412.589 160.466 412.795 159.474 413.207 158.626C413.624 157.779 414.201 157.121 414.94 156.652C415.683 156.183 416.547 155.949 417.532 155.949C418.517 155.949 419.379 156.183 420.118 156.652C420.861 157.121 421.439 157.779 421.85 158.626C422.267 159.474 422.475 160.466 422.475 161.602C422.475 162.729 422.267 163.714 421.85 164.557C421.439 165.4 420.861 166.055 420.118 166.524C419.379 166.993 418.517 167.227 417.532 167.227ZM417.532 165.722C418.28 165.722 418.896 165.53 419.379 165.146C419.862 164.763 420.219 164.259 420.451 163.634C420.683 163.009 420.799 162.331 420.799 161.602C420.799 160.873 420.683 160.194 420.451 159.564C420.219 158.934 419.862 158.425 419.379 158.037C418.896 157.649 418.28 157.455 417.532 157.455C416.784 157.455 416.169 157.649 415.686 158.037C415.203 158.425 414.845 158.934 414.613 159.564C414.381 160.194 414.265 160.873 414.265 161.602C414.265 162.331 414.381 163.009 414.613 163.634C414.845 164.259 415.203 164.763 415.686 165.146C416.169 165.53 416.784 165.722 417.532 165.722ZM423.869 170.125V165.438H424.778C425.001 165.205 425.193 164.955 425.354 164.685C425.515 164.415 425.654 164.095 425.773 163.726C425.896 163.352 426 162.897 426.085 162.362C426.17 161.822 426.246 161.171 426.312 160.409L426.682 156.091H433.614V165.438H435.29V170.125H433.614V167H425.545V170.125H423.869ZM426.682 165.438H431.938V157.653H428.244L427.96 160.409C427.842 161.55 427.695 162.547 427.52 163.399C427.345 164.251 427.065 164.931 426.682 165.438ZM436.35 170.125V165.438H437.259C437.481 165.205 437.673 164.955 437.834 164.685C437.995 164.415 438.135 164.095 438.253 163.726C438.376 163.352 438.48 162.897 438.566 162.362C438.651 161.822 438.727 161.171 438.793 160.409L439.162 156.091H446.094V165.438H447.77V170.125H446.094V167H438.026V170.125H436.35ZM439.162 165.438H444.418V157.653H440.725L440.441 160.409C440.322 161.55 440.176 162.547 440 163.399C439.825 164.251 439.546 164.931 439.162 165.438ZM454.569 167.227C453.518 167.227 452.611 166.995 451.849 166.531C451.091 166.062 450.506 165.409 450.094 164.571C449.687 163.728 449.484 162.748 449.484 161.631C449.484 160.513 449.687 159.528 450.094 158.676C450.506 157.819 451.079 157.152 451.813 156.673C452.552 156.19 453.414 155.949 454.398 155.949C454.967 155.949 455.528 156.044 456.082 156.233C456.636 156.422 457.14 156.73 457.594 157.156C458.049 157.578 458.411 158.136 458.681 158.832C458.951 159.528 459.086 160.385 459.086 161.403V162.114H450.677V160.665H457.381C457.381 160.049 457.258 159.5 457.012 159.017C456.771 158.534 456.425 158.153 455.975 157.874C455.53 157.594 455.004 157.455 454.398 157.455C453.731 157.455 453.153 157.62 452.665 157.952C452.183 158.278 451.811 158.705 451.55 159.23C451.29 159.756 451.16 160.319 451.16 160.92V161.886C451.16 162.71 451.302 163.409 451.586 163.982C451.875 164.55 452.275 164.983 452.786 165.281C453.298 165.575 453.892 165.722 454.569 165.722C455.009 165.722 455.407 165.66 455.762 165.537C456.122 165.409 456.432 165.22 456.692 164.969C456.953 164.713 457.154 164.396 457.296 164.017L458.915 164.472C458.745 165.021 458.459 165.504 458.056 165.92C457.654 166.332 457.156 166.654 456.565 166.886C455.973 167.114 455.308 167.227 454.569 167.227ZM461.636 171.091V156.091H463.255V157.824H463.454C463.577 157.634 463.747 157.393 463.965 157.099C464.188 156.801 464.505 156.536 464.917 156.304C465.334 156.067 465.897 155.949 466.607 155.949C467.526 155.949 468.335 156.179 469.036 156.638C469.737 157.097 470.284 157.748 470.677 158.591C471.07 159.434 471.266 160.428 471.266 161.574C471.266 162.729 471.07 163.731 470.677 164.578C470.284 165.421 469.739 166.074 469.043 166.538C468.347 166.998 467.545 167.227 466.636 167.227C465.935 167.227 465.374 167.111 464.952 166.879C464.531 166.643 464.207 166.375 463.979 166.077C463.752 165.774 463.577 165.523 463.454 165.324H463.312V171.091H461.636ZM463.283 161.545C463.283 162.369 463.404 163.096 463.646 163.726C463.887 164.351 464.24 164.841 464.704 165.196C465.168 165.546 465.736 165.722 466.408 165.722C467.109 165.722 467.694 165.537 468.163 165.168C468.636 164.794 468.991 164.292 469.228 163.662C469.469 163.027 469.59 162.322 469.59 161.545C469.59 160.778 469.472 160.087 469.235 159.472C469.003 158.851 468.65 158.361 468.177 158.001C467.708 157.637 467.119 157.455 466.408 157.455C465.727 157.455 465.154 157.627 464.69 157.973C464.226 158.314 463.875 158.792 463.638 159.408C463.402 160.018 463.283 160.731 463.283 161.545ZM472.692 167L477.124 161.46L472.749 156.091H474.738L478.374 160.75H479.283V156.091H480.959V160.75H481.84L485.476 156.091H487.465L483.118 161.46L487.522 167H485.505L481.811 162.312H480.959V167H479.283V162.312H478.431L474.709 167H472.692ZM489.917 167V156.091H491.593V160.835H492.701L496.621 156.091H498.781L494.377 161.347L498.837 167H496.678L493.099 162.398H491.593V167H489.917ZM501.739 171.091C501.455 171.091 501.201 171.067 500.979 171.02C500.756 170.977 500.602 170.935 500.517 170.892L500.943 169.415C501.35 169.519 501.71 169.557 502.023 169.528C502.335 169.5 502.612 169.36 502.854 169.109C503.1 168.863 503.325 168.463 503.528 167.909L503.841 167.057L499.807 156.091H501.625L504.636 164.784H504.75L507.761 156.091H509.58L504.949 168.591C504.741 169.154 504.482 169.621 504.175 169.99C503.867 170.364 503.509 170.641 503.102 170.821C502.7 171.001 502.245 171.091 501.739 171.091ZM136.966 191.227C135.943 191.227 135.063 190.986 134.324 190.503C133.585 190.02 133.017 189.355 132.619 188.507C132.222 187.66 132.023 186.691 132.023 185.602C132.023 184.494 132.226 183.517 132.634 182.669C133.045 181.817 133.618 181.152 134.352 180.673C135.091 180.19 135.953 179.949 136.938 179.949C137.705 179.949 138.396 180.091 139.011 180.375C139.627 180.659 140.131 181.057 140.524 181.568C140.917 182.08 141.161 182.676 141.256 183.358H139.58C139.452 182.861 139.168 182.42 138.727 182.037C138.292 181.649 137.705 181.455 136.966 181.455C136.313 181.455 135.74 181.625 135.247 181.966C134.759 182.302 134.378 182.778 134.104 183.393C133.834 184.004 133.699 184.722 133.699 185.545C133.699 186.388 133.831 187.122 134.097 187.747C134.366 188.372 134.745 188.857 135.233 189.203C135.725 189.549 136.303 189.722 136.966 189.722C137.402 189.722 137.797 189.646 138.152 189.494C138.507 189.343 138.808 189.125 139.054 188.841C139.3 188.557 139.475 188.216 139.58 187.818H141.256C141.161 188.462 140.927 189.042 140.553 189.558C140.183 190.07 139.693 190.477 139.082 190.78C138.476 191.078 137.771 191.227 136.966 191.227ZM148.28 191.227C147.229 191.227 146.322 190.995 145.56 190.531C144.802 190.062 144.217 189.409 143.805 188.571C143.398 187.728 143.195 186.748 143.195 185.631C143.195 184.513 143.398 183.528 143.805 182.676C144.217 181.819 144.79 181.152 145.524 180.673C146.263 180.19 147.125 179.949 148.109 179.949C148.678 179.949 149.239 180.044 149.793 180.233C150.347 180.422 150.851 180.73 151.305 181.156C151.76 181.578 152.122 182.136 152.392 182.832C152.662 183.528 152.797 184.385 152.797 185.403V186.114H144.388V184.665H151.092C151.092 184.049 150.969 183.5 150.723 183.017C150.482 182.534 150.136 182.153 149.686 181.874C149.241 181.594 148.715 181.455 148.109 181.455C147.442 181.455 146.864 181.62 146.376 181.952C145.893 182.278 145.522 182.705 145.261 183.23C145.001 183.756 144.871 184.319 144.871 184.92V185.886C144.871 186.71 145.013 187.409 145.297 187.982C145.586 188.55 145.986 188.983 146.497 189.281C147.009 189.575 147.603 189.722 148.28 189.722C148.72 189.722 149.118 189.66 149.473 189.537C149.833 189.409 150.143 189.22 150.403 188.969C150.664 188.713 150.865 188.396 151.007 188.017L152.626 188.472C152.456 189.021 152.17 189.504 151.767 189.92C151.365 190.332 150.867 190.654 150.276 190.886C149.684 191.114 149.018 191.227 148.28 191.227ZM155.347 195.091V180.091H156.966V181.824H157.165C157.288 181.634 157.458 181.393 157.676 181.099C157.899 180.801 158.216 180.536 158.628 180.304C159.045 180.067 159.608 179.949 160.318 179.949C161.237 179.949 162.046 180.179 162.747 180.638C163.448 181.097 163.995 181.748 164.388 182.591C164.781 183.434 164.977 184.428 164.977 185.574C164.977 186.729 164.781 187.731 164.388 188.578C163.995 189.421 163.45 190.074 162.754 190.538C162.058 190.998 161.256 191.227 160.347 191.227C159.646 191.227 159.085 191.111 158.663 190.879C158.242 190.643 157.918 190.375 157.69 190.077C157.463 189.774 157.288 189.523 157.165 189.324H157.023V195.091H155.347ZM156.994 185.545C156.994 186.369 157.115 187.096 157.357 187.726C157.598 188.351 157.951 188.841 158.415 189.196C158.879 189.546 159.447 189.722 160.119 189.722C160.82 189.722 161.405 189.537 161.874 189.168C162.347 188.794 162.702 188.292 162.939 187.662C163.18 187.027 163.301 186.322 163.301 185.545C163.301 184.778 163.183 184.087 162.946 183.472C162.714 182.851 162.361 182.361 161.888 182.001C161.419 181.637 160.83 181.455 160.119 181.455C159.438 181.455 158.865 181.627 158.401 181.973C157.937 182.314 157.586 182.792 157.349 183.408C157.113 184.018 156.994 184.731 156.994 185.545ZM167.534 191V180.091H171.994C173.169 180.091 174.101 180.356 174.793 180.886C175.484 181.417 175.83 182.117 175.83 182.989C175.83 183.652 175.633 184.165 175.24 184.53C174.847 184.89 174.343 185.134 173.727 185.261C174.13 185.318 174.52 185.46 174.899 185.688C175.283 185.915 175.6 186.227 175.851 186.625C176.102 187.018 176.227 187.501 176.227 188.074C176.227 188.633 176.085 189.132 175.801 189.572C175.517 190.013 175.11 190.361 174.58 190.616C174.049 190.872 173.415 191 172.676 191H167.534ZM169.125 189.466H172.676C173.254 189.466 173.706 189.329 174.033 189.054C174.359 188.779 174.523 188.405 174.523 187.932C174.523 187.368 174.359 186.926 174.033 186.604C173.706 186.277 173.254 186.114 172.676 186.114H169.125V189.466ZM169.125 184.665H171.994C172.444 184.665 172.83 184.603 173.152 184.48C173.474 184.352 173.72 184.172 173.891 183.94C174.066 183.704 174.153 183.424 174.153 183.102C174.153 182.643 173.962 182.283 173.578 182.023C173.195 181.758 172.667 181.625 171.994 181.625H169.125V184.665ZM180.441 188.528L185.696 180.091H187.628V191H185.952V182.562L180.725 191H178.765V180.091H180.441V188.528ZM195.13 191.227C194.107 191.227 193.227 190.986 192.488 190.503C191.749 190.02 191.181 189.355 190.783 188.507C190.386 187.66 190.187 186.691 190.187 185.602C190.187 184.494 190.39 183.517 190.798 182.669C191.21 181.817 191.782 181.152 192.516 180.673C193.255 180.19 194.117 179.949 195.102 179.949C195.869 179.949 196.56 180.091 197.175 180.375C197.791 180.659 198.295 181.057 198.688 181.568C199.081 182.08 199.325 182.676 199.42 183.358H197.744C197.616 182.861 197.332 182.42 196.891 182.037C196.456 181.649 195.869 181.455 195.13 181.455C194.477 181.455 193.904 181.625 193.411 181.966C192.924 182.302 192.542 182.778 192.268 183.393C191.998 184.004 191.863 184.722 191.863 185.545C191.863 186.388 191.996 187.122 192.261 187.747C192.531 188.372 192.909 188.857 193.397 189.203C193.889 189.549 194.467 189.722 195.13 189.722C195.566 189.722 195.961 189.646 196.316 189.494C196.671 189.343 196.972 189.125 197.218 188.841C197.464 188.557 197.639 188.216 197.744 187.818H199.42C199.325 188.462 199.091 189.042 198.717 189.558C198.347 190.07 197.857 190.477 197.246 190.78C196.64 191.078 195.935 191.227 195.13 191.227ZM205.08 191.256C204.389 191.256 203.762 191.125 203.198 190.865C202.635 190.6 202.187 190.219 201.856 189.722C201.524 189.22 201.359 188.614 201.359 187.903C201.359 187.278 201.482 186.772 201.728 186.384C201.974 185.991 202.303 185.683 202.715 185.46C203.127 185.238 203.582 185.072 204.079 184.963C204.581 184.849 205.085 184.759 205.592 184.693C206.254 184.608 206.792 184.544 207.204 184.501C207.621 184.454 207.924 184.376 208.113 184.267C208.307 184.158 208.404 183.969 208.404 183.699V183.642C208.404 182.941 208.212 182.397 207.829 182.009C207.45 181.62 206.875 181.426 206.103 181.426C205.303 181.426 204.675 181.601 204.221 181.952C203.766 182.302 203.447 182.676 203.262 183.074L201.671 182.506C201.955 181.843 202.334 181.327 202.808 180.957C203.286 180.583 203.807 180.323 204.37 180.176C204.938 180.025 205.497 179.949 206.046 179.949C206.397 179.949 206.799 179.991 207.254 180.077C207.713 180.157 208.156 180.325 208.582 180.581C209.013 180.837 209.37 181.223 209.654 181.739C209.938 182.255 210.08 182.946 210.08 183.812V191H208.404V189.523H208.319C208.205 189.759 208.016 190.013 207.751 190.283C207.486 190.553 207.133 190.782 206.692 190.972C206.252 191.161 205.715 191.256 205.08 191.256ZM205.336 189.75C205.999 189.75 206.558 189.62 207.012 189.359C207.471 189.099 207.817 188.763 208.049 188.351C208.286 187.939 208.404 187.506 208.404 187.051V185.517C208.333 185.602 208.177 185.68 207.935 185.751C207.699 185.818 207.424 185.877 207.112 185.929C206.804 185.976 206.503 186.019 206.21 186.057C205.921 186.09 205.686 186.118 205.506 186.142C205.071 186.199 204.664 186.291 204.285 186.419C203.911 186.542 203.608 186.729 203.376 186.98C203.148 187.226 203.035 187.562 203.035 187.989C203.035 188.571 203.25 189.011 203.681 189.31C204.117 189.603 204.668 189.75 205.336 189.75Z" fill="black"/>
</g>
<defs>
<clipPath id="clip0_38_301">
<rect width="627" height="213" rx="48" fill="white"/>
</clipPath>
</defs>
</svg>
