<svg width="1130" height="213" viewBox="0 0 1130 213" fill="none" xmlns="http://www.w3.org/2000/svg">
<g clip-path="url(#clip0_38_307)">
<rect width="1130" height="213" rx="48" fill="#D3E1BA"/>
<path d="M91.912 216.36C85.416 216.36 78.9947 215.688 72.648 214.344C66.376 213 60.5893 211.171 55.288 208.856C50.0613 206.467 45.768 203.741 42.408 200.68L50.808 180.072C55.512 184.477 61.4853 187.987 68.728 190.6C75.9707 193.213 83.176 194.52 90.344 194.52C97.4373 194.52 103.597 193.325 108.824 190.936C114.051 188.547 118.083 185.187 120.92 180.856C123.832 176.525 125.288 171.411 125.288 165.512C125.288 156.552 122.003 149.571 115.432 144.568C108.936 139.565 100.275 137.064 89.448 137.064C86.536 137.064 83.512 137.288 80.376 137.736C77.24 138.109 74.0667 138.669 70.856 139.416L63.576 122.952L112.632 77.256H43.64V56.2H142.424V75.576L95.72 120.936C105.053 120.787 113.827 122.392 122.04 125.752C130.253 129.112 136.861 134.227 141.864 141.096C146.941 147.891 149.48 156.477 149.48 166.856C149.48 176.712 147.016 185.373 142.088 192.84C137.16 200.232 130.365 206.019 121.704 210.2C113.043 214.307 103.112 216.36 91.912 216.36Z" fill="#9DB869"/>
<path d="M194.034 178.727C194.034 180.261 193.757 181.587 193.203 182.705C192.649 183.822 191.889 184.684 190.923 185.29C189.957 185.896 188.854 186.199 187.614 186.199C186.373 186.199 185.27 185.896 184.304 185.29C183.338 184.684 182.578 183.822 182.024 182.705C181.47 181.587 181.193 180.261 181.193 178.727C181.193 177.193 181.47 175.867 182.024 174.75C182.578 173.633 183.338 172.771 184.304 172.165C185.27 171.559 186.373 171.256 187.614 171.256C188.854 171.256 189.957 171.559 190.923 172.165C191.889 172.771 192.649 173.633 193.203 174.75C193.757 175.867 194.034 177.193 194.034 178.727ZM192.33 178.727C192.33 177.468 192.119 176.405 191.697 175.538C191.281 174.672 190.715 174.016 190 173.571C189.29 173.126 188.494 172.903 187.614 172.903C186.733 172.903 185.935 173.126 185.22 173.571C184.51 174.016 183.944 174.672 183.523 175.538C183.106 176.405 182.898 177.468 182.898 178.727C182.898 179.987 183.106 181.05 183.523 181.916C183.944 182.783 184.51 183.438 185.22 183.884C185.935 184.329 186.733 184.551 187.614 184.551C188.494 184.551 189.29 184.329 190 183.884C190.715 183.438 191.281 182.783 191.697 181.916C192.119 181.05 192.33 179.987 192.33 178.727ZM196.143 176.653V175.091H205.007V176.653H201.428V186H199.751V176.653H196.143ZM206.77 183.216H208.56C208.598 183.708 208.82 184.082 209.228 184.338C209.64 184.594 210.175 184.722 210.833 184.722C211.505 184.722 212.08 184.584 212.559 184.31C213.037 184.03 213.276 183.58 213.276 182.96C213.276 182.596 213.186 182.278 213.006 182.009C212.826 181.734 212.573 181.521 212.246 181.369C211.919 181.218 211.533 181.142 211.088 181.142H209.213V179.636H211.088C211.756 179.636 212.248 179.485 212.566 179.182C212.888 178.879 213.049 178.5 213.049 178.045C213.049 177.558 212.876 177.167 212.53 176.874C212.185 176.575 211.694 176.426 211.06 176.426C210.421 176.426 209.888 176.571 209.462 176.859C209.036 177.143 208.811 177.51 208.787 177.96H207.026C207.045 177.373 207.225 176.855 207.566 176.405C207.907 175.95 208.371 175.595 208.958 175.339C209.545 175.079 210.217 174.949 210.975 174.949C211.742 174.949 212.407 175.084 212.971 175.354C213.539 175.619 213.977 175.981 214.284 176.44C214.597 176.895 214.753 177.411 214.753 177.989C214.753 178.604 214.58 179.101 214.235 179.48C213.889 179.859 213.456 180.129 212.935 180.29V180.403C213.347 180.432 213.704 180.564 214.007 180.801C214.315 181.033 214.554 181.339 214.725 181.717C214.895 182.091 214.98 182.506 214.98 182.96C214.98 183.623 214.803 184.201 214.448 184.693C214.093 185.181 213.605 185.56 212.985 185.83C212.364 186.095 211.657 186.227 210.861 186.227C210.089 186.227 209.398 186.102 208.787 185.851C208.176 185.595 207.691 185.242 207.331 184.793C206.976 184.338 206.789 183.812 206.77 183.216ZM221.767 186.227C220.782 186.227 219.918 185.993 219.174 185.524C218.436 185.055 217.858 184.4 217.441 183.557C217.029 182.714 216.824 181.729 216.824 180.602C216.824 179.466 217.029 178.474 217.441 177.626C217.858 176.779 218.436 176.121 219.174 175.652C219.918 175.183 220.782 174.949 221.767 174.949C222.752 174.949 223.613 175.183 224.352 175.652C225.095 176.121 225.673 176.779 226.085 177.626C226.502 178.474 226.71 179.466 226.71 180.602C226.71 181.729 226.502 182.714 226.085 183.557C225.673 184.4 225.095 185.055 224.352 185.524C223.613 185.993 222.752 186.227 221.767 186.227ZM221.767 184.722C222.515 184.722 223.13 184.53 223.613 184.146C224.096 183.763 224.454 183.259 224.686 182.634C224.918 182.009 225.034 181.331 225.034 180.602C225.034 179.873 224.918 179.194 224.686 178.564C224.454 177.934 224.096 177.425 223.613 177.037C223.13 176.649 222.515 176.455 221.767 176.455C221.019 176.455 220.403 176.649 219.92 177.037C219.437 177.425 219.08 177.934 218.848 178.564C218.616 179.194 218.5 179.873 218.5 180.602C218.5 181.331 218.616 182.009 218.848 182.634C219.08 183.259 219.437 183.763 219.92 184.146C220.403 184.53 221.019 184.722 221.767 184.722ZM229.268 186V175.091H233.729C234.903 175.091 235.836 175.356 236.527 175.886C237.218 176.417 237.564 177.117 237.564 177.989C237.564 178.652 237.367 179.165 236.974 179.53C236.581 179.89 236.077 180.134 235.462 180.261C235.864 180.318 236.255 180.46 236.634 180.688C237.017 180.915 237.334 181.227 237.585 181.625C237.836 182.018 237.962 182.501 237.962 183.074C237.962 183.633 237.82 184.132 237.536 184.572C237.251 185.013 236.844 185.361 236.314 185.616C235.784 185.872 235.149 186 234.411 186H229.268ZM230.859 184.466H234.411C234.988 184.466 235.44 184.329 235.767 184.054C236.094 183.779 236.257 183.405 236.257 182.932C236.257 182.368 236.094 181.926 235.767 181.604C235.44 181.277 234.988 181.114 234.411 181.114H230.859V184.466ZM230.859 179.665H233.729C234.179 179.665 234.564 179.603 234.886 179.48C235.208 179.352 235.455 179.172 235.625 178.94C235.8 178.704 235.888 178.424 235.888 178.102C235.888 177.643 235.696 177.283 235.312 177.023C234.929 176.758 234.401 176.625 233.729 176.625H230.859V179.665ZM242.175 183.528L247.431 175.091H249.363V186H247.686V177.562L242.459 186H240.499V175.091H242.175V183.528ZM250.948 176.653V175.091H259.812V176.653H256.232V186H254.556V176.653H250.948ZM266.264 186.227C265.213 186.227 264.306 185.995 263.544 185.531C262.786 185.062 262.202 184.409 261.79 183.571C261.383 182.728 261.179 181.748 261.179 180.631C261.179 179.513 261.383 178.528 261.79 177.676C262.202 176.819 262.775 176.152 263.509 175.673C264.247 175.19 265.109 174.949 266.094 174.949C266.662 174.949 267.223 175.044 267.777 175.233C268.331 175.422 268.835 175.73 269.29 176.156C269.744 176.578 270.107 177.136 270.376 177.832C270.646 178.528 270.781 179.385 270.781 180.403V181.114H262.372V179.665H269.077C269.077 179.049 268.954 178.5 268.707 178.017C268.466 177.534 268.12 177.153 267.67 176.874C267.225 176.594 266.7 176.455 266.094 176.455C265.426 176.455 264.848 176.62 264.361 176.952C263.878 177.278 263.506 177.705 263.246 178.23C262.985 178.756 262.855 179.319 262.855 179.92V180.886C262.855 181.71 262.997 182.409 263.281 182.982C263.57 183.55 263.97 183.983 264.482 184.281C264.993 184.575 265.587 184.722 266.264 184.722C266.705 184.722 267.102 184.66 267.457 184.537C267.817 184.409 268.127 184.22 268.388 183.969C268.648 183.713 268.849 183.396 268.991 183.017L270.611 183.472C270.44 184.021 270.154 184.504 269.751 184.92C269.349 185.332 268.852 185.654 268.26 185.886C267.668 186.114 267.003 186.227 266.264 186.227ZM277.791 189.125V184.438H278.7C278.923 184.205 279.115 183.955 279.276 183.685C279.437 183.415 279.576 183.095 279.695 182.726C279.818 182.352 279.922 181.897 280.007 181.362C280.092 180.822 280.168 180.171 280.234 179.409L280.604 175.091H287.536V184.438H289.212V189.125H287.536V186H279.467V189.125H277.791ZM280.604 184.438H285.859V176.653H282.166L281.882 179.409C281.764 180.55 281.617 181.547 281.442 182.399C281.267 183.251 280.987 183.931 280.604 184.438ZM295.868 186.227C294.883 186.227 294.019 185.993 293.276 185.524C292.537 185.055 291.96 184.4 291.543 183.557C291.131 182.714 290.925 181.729 290.925 180.602C290.925 179.466 291.131 178.474 291.543 177.626C291.96 176.779 292.537 176.121 293.276 175.652C294.019 175.183 294.883 174.949 295.868 174.949C296.853 174.949 297.715 175.183 298.453 175.652C299.197 176.121 299.775 176.779 300.186 177.626C300.603 178.474 300.811 179.466 300.811 180.602C300.811 181.729 300.603 182.714 300.186 183.557C299.775 184.4 299.197 185.055 298.453 185.524C297.715 185.993 296.853 186.227 295.868 186.227ZM295.868 184.722C296.616 184.722 297.232 184.53 297.715 184.146C298.198 183.763 298.555 183.259 298.787 182.634C299.019 182.009 299.135 181.331 299.135 180.602C299.135 179.873 299.019 179.194 298.787 178.564C298.555 177.934 298.198 177.425 297.715 177.037C297.232 176.649 296.616 176.455 295.868 176.455C295.12 176.455 294.505 176.649 294.022 177.037C293.539 177.425 293.181 177.934 292.949 178.564C292.717 179.194 292.601 179.873 292.601 180.602C292.601 181.331 292.717 182.009 292.949 182.634C293.181 183.259 293.539 183.763 294.022 184.146C294.505 184.53 295.12 184.722 295.868 184.722ZM307.802 186.227C306.779 186.227 305.898 185.986 305.16 185.503C304.421 185.02 303.853 184.355 303.455 183.507C303.058 182.66 302.859 181.691 302.859 180.602C302.859 179.494 303.062 178.517 303.469 177.669C303.881 176.817 304.454 176.152 305.188 175.673C305.927 175.19 306.789 174.949 307.773 174.949C308.54 174.949 309.232 175.091 309.847 175.375C310.463 175.659 310.967 176.057 311.36 176.568C311.753 177.08 311.997 177.676 312.092 178.358H310.415C310.288 177.861 310.004 177.42 309.563 177.037C309.128 176.649 308.54 176.455 307.802 176.455C307.148 176.455 306.576 176.625 306.083 176.966C305.595 177.302 305.214 177.778 304.94 178.393C304.67 179.004 304.535 179.722 304.535 180.545C304.535 181.388 304.667 182.122 304.933 182.747C305.202 183.372 305.581 183.857 306.069 184.203C306.561 184.549 307.139 184.722 307.802 184.722C308.237 184.722 308.633 184.646 308.988 184.494C309.343 184.343 309.644 184.125 309.89 183.841C310.136 183.557 310.311 183.216 310.415 182.818H312.092C311.997 183.462 311.763 184.042 311.388 184.558C311.019 185.07 310.529 185.477 309.918 185.78C309.312 186.078 308.607 186.227 307.802 186.227ZM313.683 176.653V175.091H322.546V176.653H318.967V186H317.29V176.653H313.683ZM326.071 190.091C325.787 190.091 325.533 190.067 325.311 190.02C325.088 189.977 324.934 189.935 324.849 189.892L325.275 188.415C325.682 188.519 326.042 188.557 326.355 188.528C326.667 188.5 326.944 188.36 327.186 188.109C327.432 187.863 327.657 187.463 327.86 186.909L328.173 186.057L324.139 175.091H325.957L328.968 183.784H329.082L332.093 175.091H333.912L329.281 187.591C329.073 188.154 328.815 188.621 328.507 188.99C328.199 189.364 327.842 189.641 327.434 189.821C327.032 190.001 326.577 190.091 326.071 190.091ZM336.124 186V175.091H344.703V186H343.027V176.653H337.8V186H336.124ZM353.39 186V175.091H355.066V179.835H356.174L360.094 175.091H362.253L357.85 180.347L362.31 186H360.151L356.571 181.398H355.066V186H353.39ZM369.757 186V175.091H374.217C375.391 175.091 376.324 175.356 377.015 175.886C377.707 176.417 378.052 177.117 378.052 177.989C378.052 178.652 377.856 179.165 377.463 179.53C377.07 179.89 376.565 180.134 375.95 180.261C376.352 180.318 376.743 180.46 377.122 180.688C377.505 180.915 377.823 181.227 378.074 181.625C378.324 182.018 378.45 182.501 378.45 183.074C378.45 183.633 378.308 184.132 378.024 184.572C377.74 185.013 377.333 185.361 376.802 185.616C376.272 185.872 375.637 186 374.899 186H369.757ZM371.348 184.466H374.899C375.476 184.466 375.929 184.329 376.255 184.054C376.582 183.779 376.745 183.405 376.745 182.932C376.745 182.368 376.582 181.926 376.255 181.604C375.929 181.277 375.476 181.114 374.899 181.114H371.348V184.466ZM371.348 179.665H374.217C374.667 179.665 375.053 179.603 375.375 179.48C375.697 179.352 375.943 179.172 376.113 178.94C376.288 178.704 376.376 178.424 376.376 178.102C376.376 177.643 376.184 177.283 375.801 177.023C375.417 176.758 374.889 176.625 374.217 176.625H371.348V179.665ZM384.197 186.256C383.506 186.256 382.879 186.125 382.315 185.865C381.752 185.6 381.304 185.219 380.973 184.722C380.642 184.22 380.476 183.614 380.476 182.903C380.476 182.278 380.599 181.772 380.845 181.384C381.091 180.991 381.42 180.683 381.832 180.46C382.244 180.238 382.699 180.072 383.196 179.963C383.698 179.849 384.202 179.759 384.709 179.693C385.372 179.608 385.909 179.544 386.321 179.501C386.738 179.454 387.041 179.376 387.23 179.267C387.424 179.158 387.521 178.969 387.521 178.699V178.642C387.521 177.941 387.33 177.397 386.946 177.009C386.567 176.62 385.992 176.426 385.22 176.426C384.42 176.426 383.793 176.601 383.338 176.952C382.884 177.302 382.564 177.676 382.379 178.074L380.788 177.506C381.072 176.843 381.451 176.327 381.925 175.957C382.403 175.583 382.924 175.323 383.487 175.176C384.055 175.025 384.614 174.949 385.163 174.949C385.514 174.949 385.916 174.991 386.371 175.077C386.83 175.157 387.273 175.325 387.699 175.581C388.13 175.837 388.487 176.223 388.771 176.739C389.055 177.255 389.197 177.946 389.197 178.812V186H387.521V184.523H387.436C387.322 184.759 387.133 185.013 386.868 185.283C386.603 185.553 386.25 185.782 385.81 185.972C385.369 186.161 384.832 186.256 384.197 186.256ZM384.453 184.75C385.116 184.75 385.675 184.62 386.129 184.359C386.589 184.099 386.934 183.763 387.166 183.351C387.403 182.939 387.521 182.506 387.521 182.051V180.517C387.45 180.602 387.294 180.68 387.053 180.751C386.816 180.818 386.541 180.877 386.229 180.929C385.921 180.976 385.62 181.019 385.327 181.057C385.038 181.09 384.804 181.118 384.624 181.142C384.188 181.199 383.781 181.291 383.402 181.419C383.028 181.542 382.725 181.729 382.493 181.98C382.266 182.226 382.152 182.562 382.152 182.989C382.152 183.571 382.367 184.011 382.798 184.31C383.234 184.603 383.786 184.75 384.453 184.75ZM392.257 175.091H393.933V184.438H398.052V175.091H399.728V184.438H403.848V175.091H405.524V186H392.257V175.091ZM410.261 183.528L415.517 175.091H417.449V186H415.772V177.562L410.545 186H408.585V175.091H410.261V183.528ZM426.484 183.727L430.291 175.091H431.882L427.166 186H425.803L421.172 175.091H422.734L426.484 183.727ZM422.195 175.091V186H420.518V175.091H422.195ZM430.774 186V175.091H432.45V186H430.774ZM439.979 189.125V184.438H440.888C441.11 184.205 441.302 183.955 441.463 183.685C441.624 183.415 441.764 183.095 441.882 182.726C442.005 182.352 442.109 181.897 442.195 181.362C442.28 180.822 442.356 180.171 442.422 179.409L442.791 175.091H449.723V184.438H451.399V189.125H449.723V186H441.655V189.125H439.979ZM442.791 184.438H448.047V176.653H444.354L444.07 179.409C443.951 180.55 443.804 181.547 443.629 182.399C443.454 183.251 443.175 183.931 442.791 184.438ZM456.834 186.256C456.143 186.256 455.516 186.125 454.952 185.865C454.389 185.6 453.941 185.219 453.61 184.722C453.278 184.22 453.113 183.614 453.113 182.903C453.113 182.278 453.236 181.772 453.482 181.384C453.728 180.991 454.057 180.683 454.469 180.46C454.881 180.238 455.336 180.072 455.833 179.963C456.335 179.849 456.839 179.759 457.346 179.693C458.008 179.608 458.546 179.544 458.958 179.501C459.374 179.454 459.677 179.376 459.867 179.267C460.061 179.158 460.158 178.969 460.158 178.699V178.642C460.158 177.941 459.966 177.397 459.583 177.009C459.204 176.62 458.629 176.426 457.857 176.426C457.057 176.426 456.429 176.601 455.975 176.952C455.52 177.302 455.201 177.676 455.016 178.074L453.425 177.506C453.709 176.843 454.088 176.327 454.561 175.957C455.04 175.583 455.56 175.323 456.124 175.176C456.692 175.025 457.251 174.949 457.8 174.949C458.15 174.949 458.553 174.991 459.007 175.077C459.467 175.157 459.909 175.325 460.336 175.581C460.766 175.837 461.124 176.223 461.408 176.739C461.692 177.255 461.834 177.946 461.834 178.812V186H460.158V184.523H460.073C459.959 184.759 459.77 185.013 459.505 185.283C459.239 185.553 458.887 185.782 458.446 185.972C458.006 186.161 457.469 186.256 456.834 186.256ZM457.09 184.75C457.753 184.75 458.311 184.62 458.766 184.359C459.225 184.099 459.571 183.763 459.803 183.351C460.04 182.939 460.158 182.506 460.158 182.051V180.517C460.087 180.602 459.931 180.68 459.689 180.751C459.453 180.818 459.178 180.877 458.865 180.929C458.558 180.976 458.257 181.019 457.963 181.057C457.675 181.09 457.44 181.118 457.26 181.142C456.825 181.199 456.417 181.291 456.039 181.419C455.665 181.542 455.362 181.729 455.13 181.98C454.902 182.226 454.789 182.562 454.789 182.989C454.789 183.571 455.004 184.011 455.435 184.31C455.871 184.603 456.422 184.75 457.09 184.75ZM472.195 179.778V181.341H466.172V179.778H472.195ZM466.57 175.091V186H464.893V175.091H466.57ZM473.473 175.091V186H471.797V175.091H473.473ZM483.835 179.778V181.341H477.812V179.778H483.835ZM478.21 175.091V186H476.534V175.091H478.21ZM485.114 175.091V186H483.438V175.091H485.114ZM489.624 179.04H492.749C494.027 179.04 495.005 179.364 495.682 180.013C496.359 180.661 496.697 181.483 496.697 182.477C496.697 183.131 496.546 183.725 496.243 184.26C495.94 184.79 495.495 185.214 494.908 185.531C494.321 185.844 493.601 186 492.749 186H488.175V175.091H489.851V184.438H492.749C493.411 184.438 493.956 184.262 494.382 183.912C494.808 183.562 495.021 183.112 495.021 182.562C495.021 181.985 494.808 181.514 494.382 181.149C493.956 180.785 493.411 180.602 492.749 180.602H489.624V179.04ZM498.43 186V175.091H500.107V186H498.43ZM509.141 183.727L512.947 175.091H514.538L509.822 186H508.459L503.828 175.091H505.391L509.141 183.727ZM504.851 175.091V186H503.175V175.091H504.851ZM513.43 186V175.091H515.107V186H513.43ZM524.879 190.091C524.595 190.091 524.342 190.067 524.119 190.02C523.897 189.977 523.743 189.935 523.658 189.892L524.084 188.415C524.491 188.519 524.851 188.557 525.163 188.528C525.476 188.5 525.753 188.36 525.994 188.109C526.241 187.863 526.465 187.463 526.669 186.909L526.982 186.057L522.947 175.091H524.766L527.777 183.784H527.891L530.902 175.091H532.72L528.089 187.591C527.881 188.154 527.623 188.621 527.315 188.99C527.008 189.364 526.65 189.641 526.243 189.821C525.84 190.001 525.386 190.091 524.879 190.091ZM540.558 186V175.091H549.137V186H547.461V176.653H542.234V186H540.558ZM556.63 186.227C555.645 186.227 554.781 185.993 554.038 185.524C553.299 185.055 552.721 184.4 552.305 183.557C551.893 182.714 551.687 181.729 551.687 180.602C551.687 179.466 551.893 178.474 552.305 177.626C552.721 176.779 553.299 176.121 554.038 175.652C554.781 175.183 555.645 174.949 556.63 174.949C557.615 174.949 558.477 175.183 559.215 175.652C559.959 176.121 560.536 176.779 560.948 177.626C561.365 178.474 561.573 179.466 561.573 180.602C561.573 181.729 561.365 182.714 560.948 183.557C560.536 184.4 559.959 185.055 559.215 185.524C558.477 185.993 557.615 186.227 556.63 186.227ZM556.63 184.722C557.378 184.722 557.994 184.53 558.477 184.146C558.96 183.763 559.317 183.259 559.549 182.634C559.781 182.009 559.897 181.331 559.897 180.602C559.897 179.873 559.781 179.194 559.549 178.564C559.317 177.934 558.96 177.425 558.477 177.037C557.994 176.649 557.378 176.455 556.63 176.455C555.882 176.455 555.266 176.649 554.783 177.037C554.3 177.425 553.943 177.934 553.711 178.564C553.479 179.194 553.363 179.873 553.363 180.602C553.363 181.331 553.479 182.009 553.711 182.634C553.943 183.259 554.3 183.763 554.783 184.146C555.266 184.53 555.882 184.722 556.63 184.722ZM562.967 189.125V184.438H563.876C564.099 184.205 564.29 183.955 564.451 183.685C564.612 183.415 564.752 183.095 564.87 182.726C564.993 182.352 565.098 181.897 565.183 181.362C565.268 180.822 565.344 180.171 565.41 179.409L565.779 175.091H572.711V184.438H574.387V189.125H572.711V186H564.643V189.125H562.967ZM565.779 184.438H571.035V176.653H567.342L567.058 179.409C566.94 180.55 566.793 181.547 566.618 182.399C566.442 183.251 566.163 183.931 565.779 184.438ZM581.044 186.227C580.059 186.227 579.195 185.993 578.452 185.524C577.713 185.055 577.135 184.4 576.719 183.557C576.307 182.714 576.101 181.729 576.101 180.602C576.101 179.466 576.307 178.474 576.719 177.626C577.135 176.779 577.713 176.121 578.452 175.652C579.195 175.183 580.059 174.949 581.044 174.949C582.029 174.949 582.891 175.183 583.629 175.652C584.373 176.121 584.95 176.779 585.362 177.626C585.779 178.474 585.987 179.466 585.987 180.602C585.987 181.729 585.779 182.714 585.362 183.557C584.95 184.4 584.373 185.055 583.629 185.524C582.891 185.993 582.029 186.227 581.044 186.227ZM581.044 184.722C581.792 184.722 582.408 184.53 582.891 184.146C583.374 183.763 583.731 183.259 583.963 182.634C584.195 182.009 584.311 181.331 584.311 180.602C584.311 179.873 584.195 179.194 583.963 178.564C583.731 177.934 583.374 177.425 582.891 177.037C582.408 176.649 581.792 176.455 581.044 176.455C580.296 176.455 579.68 176.649 579.197 177.037C578.714 177.425 578.357 177.934 578.125 178.564C577.893 179.194 577.777 179.873 577.777 180.602C577.777 181.331 577.893 182.009 578.125 182.634C578.357 183.259 578.714 183.763 579.197 184.146C579.68 184.53 580.296 184.722 581.044 184.722ZM587.864 183.216H589.654C589.692 183.708 589.914 184.082 590.321 184.338C590.733 184.594 591.268 184.722 591.926 184.722C592.599 184.722 593.174 184.584 593.652 184.31C594.131 184.03 594.37 183.58 594.37 182.96C594.37 182.596 594.28 182.278 594.1 182.009C593.92 181.734 593.667 181.521 593.34 181.369C593.013 181.218 592.627 181.142 592.182 181.142H590.307V179.636H592.182C592.85 179.636 593.342 179.485 593.659 179.182C593.981 178.879 594.142 178.5 594.142 178.045C594.142 177.558 593.97 177.167 593.624 176.874C593.278 176.575 592.788 176.426 592.154 176.426C591.515 176.426 590.982 176.571 590.556 176.859C590.13 177.143 589.905 177.51 589.881 177.96H588.12C588.139 177.373 588.319 176.855 588.659 176.405C589 175.95 589.464 175.595 590.051 175.339C590.639 175.079 591.311 174.949 592.069 174.949C592.836 174.949 593.501 175.084 594.064 175.354C594.632 175.619 595.07 175.981 595.378 176.44C595.691 176.895 595.847 177.411 595.847 177.989C595.847 178.604 595.674 179.101 595.328 179.48C594.983 179.859 594.55 180.129 594.029 180.29V180.403C594.441 180.432 594.798 180.564 595.101 180.801C595.409 181.033 595.648 181.339 595.819 181.717C595.989 182.091 596.074 182.506 596.074 182.96C596.074 183.623 595.897 184.201 595.542 184.693C595.186 185.181 594.699 185.56 594.078 185.83C593.458 186.095 592.75 186.227 591.955 186.227C591.183 186.227 590.492 186.102 589.881 185.851C589.27 185.595 588.785 185.242 588.425 184.793C588.07 184.338 587.883 183.812 587.864 183.216ZM598.429 190.091V175.091H600.048V176.824H600.247C600.37 176.634 600.54 176.393 600.758 176.099C600.981 175.801 601.298 175.536 601.71 175.304C602.127 175.067 602.69 174.949 603.4 174.949C604.319 174.949 605.128 175.179 605.829 175.638C606.53 176.097 607.077 176.748 607.47 177.591C607.863 178.434 608.059 179.428 608.059 180.574C608.059 181.729 607.863 182.731 607.47 183.578C607.077 184.421 606.532 185.074 605.836 185.538C605.14 185.998 604.338 186.227 603.429 186.227C602.728 186.227 602.167 186.111 601.745 185.879C601.324 185.643 601 185.375 600.772 185.077C600.545 184.774 600.37 184.523 600.247 184.324H600.105V190.091H598.429ZM600.076 180.545C600.076 181.369 600.197 182.096 600.439 182.726C600.68 183.351 601.033 183.841 601.497 184.196C601.961 184.546 602.529 184.722 603.201 184.722C603.902 184.722 604.487 184.537 604.956 184.168C605.429 183.794 605.784 183.292 606.021 182.662C606.262 182.027 606.383 181.322 606.383 180.545C606.383 179.778 606.265 179.087 606.028 178.472C605.796 177.851 605.443 177.361 604.97 177.001C604.501 176.637 603.912 176.455 603.201 176.455C602.52 176.455 601.947 176.627 601.483 176.973C601.019 177.314 600.668 177.792 600.431 178.408C600.195 179.018 600.076 179.731 600.076 180.545ZM612.292 183.528L617.548 175.091H619.48V186H617.804V177.562L612.576 186H610.616V175.091H612.292V183.528ZM621.065 176.653V175.091H629.929V176.653H626.349V186H624.673V176.653H621.065ZM636.381 186.227C635.33 186.227 634.424 185.995 633.661 185.531C632.904 185.062 632.319 184.409 631.907 183.571C631.5 182.728 631.296 181.748 631.296 180.631C631.296 179.513 631.5 178.528 631.907 177.676C632.319 176.819 632.892 176.152 633.626 175.673C634.364 175.19 635.226 174.949 636.211 174.949C636.779 174.949 637.34 175.044 637.894 175.233C638.448 175.422 638.952 175.73 639.407 176.156C639.862 176.578 640.224 177.136 640.494 177.832C640.763 178.528 640.898 179.385 640.898 180.403V181.114H632.489V179.665H639.194C639.194 179.049 639.071 178.5 638.825 178.017C638.583 177.534 638.237 177.153 637.788 176.874C637.343 176.594 636.817 176.455 636.211 176.455C635.543 176.455 634.966 176.62 634.478 176.952C633.995 177.278 633.623 177.705 633.363 178.23C633.103 178.756 632.972 179.319 632.972 179.92V180.886C632.972 181.71 633.114 182.409 633.398 182.982C633.687 183.55 634.087 183.983 634.599 184.281C635.11 184.575 635.704 184.722 636.381 184.722C636.822 184.722 637.219 184.66 637.575 184.537C637.934 184.409 638.245 184.22 638.505 183.969C638.765 183.713 638.967 183.396 639.109 183.017L640.728 183.472C640.558 184.021 640.271 184.504 639.869 184.92C639.466 185.332 638.969 185.654 638.377 185.886C637.785 186.114 637.12 186.227 636.381 186.227ZM642.482 186V184.438H642.88C643.207 184.438 643.479 184.374 643.697 184.246C643.915 184.113 644.09 183.884 644.222 183.557C644.36 183.225 644.464 182.766 644.535 182.179C644.611 181.587 644.665 180.834 644.698 179.92L644.897 175.091H652.17V186H650.494V176.653H646.488L646.317 180.545C646.28 181.44 646.199 182.229 646.076 182.911C645.958 183.588 645.775 184.156 645.529 184.615C645.288 185.074 644.966 185.42 644.563 185.652C644.161 185.884 643.656 186 643.05 186H642.482ZM656.694 179.04H659.819C661.097 179.04 662.075 179.364 662.752 180.013C663.429 180.661 663.768 181.483 663.768 182.477C663.768 183.131 663.616 183.725 663.313 184.26C663.01 184.79 662.565 185.214 661.978 185.531C661.391 185.844 660.671 186 659.819 186H655.245V175.091H656.921V184.438H659.819C660.482 184.438 661.026 184.262 661.452 183.912C661.879 183.562 662.092 183.112 662.092 182.562C662.092 181.985 661.879 181.514 661.452 181.149C661.026 180.785 660.482 180.602 659.819 180.602H656.694V179.04ZM673.62 179.778V181.341H667.598V179.778H673.62ZM667.995 175.091V186H666.319V175.091H667.995ZM674.899 175.091V186H673.223V175.091H674.899ZM679.409 179.04H682.534C683.812 179.04 684.79 179.364 685.467 180.013C686.144 180.661 686.483 181.483 686.483 182.477C686.483 183.131 686.331 183.725 686.028 184.26C685.725 184.79 685.28 185.214 684.693 185.531C684.106 185.844 683.386 186 682.534 186H677.96V175.091H679.636V184.438H682.534C683.197 184.438 683.741 184.262 684.167 183.912C684.593 183.562 684.806 183.112 684.806 182.562C684.806 181.985 684.593 181.514 684.167 181.149C683.741 180.785 683.197 180.602 682.534 180.602H679.409V179.04ZM688.216 186V175.091H689.892V186H688.216ZM694.21 175.091L696.824 179.551L699.437 175.091H701.369L697.846 180.545L701.369 186H699.437L696.824 181.767L694.21 186H692.278L695.744 180.545L692.278 175.091H694.21ZM713.817 186.227C712.795 186.227 711.914 185.986 711.175 185.503C710.437 185.02 709.869 184.355 709.471 183.507C709.073 182.66 708.874 181.691 708.874 180.602C708.874 179.494 709.078 178.517 709.485 177.669C709.897 176.817 710.47 176.152 711.204 175.673C711.942 175.19 712.804 174.949 713.789 174.949C714.556 174.949 715.247 175.091 715.863 175.375C716.478 175.659 716.983 176.057 717.376 176.568C717.769 177.08 718.013 177.676 718.107 178.358H716.431C716.303 177.861 716.019 177.42 715.579 177.037C715.143 176.649 714.556 176.455 713.817 176.455C713.164 176.455 712.591 176.625 712.099 176.966C711.611 177.302 711.23 177.778 710.955 178.393C710.685 179.004 710.55 179.722 710.55 180.545C710.55 181.388 710.683 182.122 710.948 182.747C711.218 183.372 711.597 183.857 712.085 184.203C712.577 184.549 713.155 184.722 713.817 184.722C714.253 184.722 714.648 184.646 715.004 184.494C715.359 184.343 715.659 184.125 715.906 183.841C716.152 183.557 716.327 183.216 716.431 182.818H718.107C718.013 183.462 717.778 184.042 717.404 184.558C717.035 185.07 716.545 185.477 715.934 185.78C715.328 186.078 714.622 186.227 713.817 186.227ZM723.768 186.256C723.076 186.256 722.449 186.125 721.886 185.865C721.322 185.6 720.875 185.219 720.543 184.722C720.212 184.22 720.046 183.614 720.046 182.903C720.046 182.278 720.169 181.772 720.415 181.384C720.662 180.991 720.991 180.683 721.403 180.46C721.815 180.238 722.269 180.072 722.766 179.963C723.268 179.849 723.772 179.759 724.279 179.693C724.942 179.608 725.479 179.544 725.891 179.501C726.308 179.454 726.611 179.376 726.8 179.267C726.995 179.158 727.092 178.969 727.092 178.699V178.642C727.092 177.941 726.9 177.397 726.516 177.009C726.138 176.62 725.562 176.426 724.79 176.426C723.99 176.426 723.363 176.601 722.908 176.952C722.454 177.302 722.134 177.676 721.95 178.074L720.359 177.506C720.643 176.843 721.022 176.327 721.495 175.957C721.973 175.583 722.494 175.323 723.058 175.176C723.626 175.025 724.184 174.949 724.734 174.949C725.084 174.949 725.487 174.991 725.941 175.077C726.4 175.157 726.843 175.325 727.269 175.581C727.7 175.837 728.058 176.223 728.342 176.739C728.626 177.255 728.768 177.946 728.768 178.812V186H727.092V184.523H727.006C726.893 184.759 726.703 185.013 726.438 185.283C726.173 185.553 725.82 185.782 725.38 185.972C724.94 186.161 724.402 186.256 723.768 186.256ZM724.023 184.75C724.686 184.75 725.245 184.62 725.7 184.359C726.159 184.099 726.504 183.763 726.737 183.351C726.973 182.939 727.092 182.506 727.092 182.051V180.517C727.021 180.602 726.864 180.68 726.623 180.751C726.386 180.818 726.112 180.877 725.799 180.929C725.491 180.976 725.191 181.019 724.897 181.057C724.608 181.09 724.374 181.118 724.194 181.142C723.758 181.199 723.351 181.291 722.972 181.419C722.598 181.542 722.295 181.729 722.063 181.98C721.836 182.226 721.722 182.562 721.722 182.989C721.722 183.571 721.938 184.011 722.369 184.31C722.804 184.603 723.356 184.75 724.023 184.75ZM733.503 183.528L738.759 175.091H740.691V186H739.015V177.562L733.787 186H731.827V175.091H733.503V183.528ZM737.651 171.455H739.213C739.213 172.222 738.948 172.849 738.418 173.337C737.888 173.824 737.168 174.068 736.259 174.068C735.364 174.068 734.651 173.824 734.121 173.337C733.596 172.849 733.333 172.222 733.333 171.455H734.895C734.895 171.824 734.997 172.148 735.201 172.428C735.409 172.707 735.762 172.847 736.259 172.847C736.756 172.847 737.111 172.707 737.324 172.428C737.542 172.148 737.651 171.824 737.651 171.455ZM742.276 176.653V175.091H751.14V176.653H747.56V186H745.884V176.653H742.276ZM757.45 186.227C756.465 186.227 755.601 185.993 754.858 185.524C754.119 185.055 753.542 184.4 753.125 183.557C752.713 182.714 752.507 181.729 752.507 180.602C752.507 179.466 752.713 178.474 753.125 177.626C753.542 176.779 754.119 176.121 754.858 175.652C755.601 175.183 756.465 174.949 757.45 174.949C758.435 174.949 759.297 175.183 760.036 175.652C760.779 176.121 761.357 176.779 761.768 177.626C762.185 178.474 762.393 179.466 762.393 180.602C762.393 181.729 762.185 182.714 761.768 183.557C761.357 184.4 760.779 185.055 760.036 185.524C759.297 185.993 758.435 186.227 757.45 186.227ZM757.45 184.722C758.198 184.722 758.814 184.53 759.297 184.146C759.78 183.763 760.137 183.259 760.369 182.634C760.601 182.009 760.717 181.331 760.717 180.602C760.717 179.873 760.601 179.194 760.369 178.564C760.137 177.934 759.78 177.425 759.297 177.037C758.814 176.649 758.198 176.455 757.45 176.455C756.702 176.455 756.087 176.649 755.604 177.037C755.121 177.425 754.763 177.934 754.531 178.564C754.299 179.194 754.183 179.873 754.183 180.602C754.183 181.331 754.299 182.009 754.531 182.634C754.763 183.259 755.121 183.763 755.604 184.146C756.087 184.53 756.702 184.722 757.45 184.722ZM764.952 186V175.091H769.412C770.587 175.091 771.519 175.356 772.211 175.886C772.902 176.417 773.248 177.117 773.248 177.989C773.248 178.652 773.051 179.165 772.658 179.53C772.265 179.89 771.761 180.134 771.145 180.261C771.548 180.318 771.938 180.46 772.317 180.688C772.701 180.915 773.018 181.227 773.269 181.625C773.52 182.018 773.645 182.501 773.645 183.074C773.645 183.633 773.503 184.132 773.219 184.572C772.935 185.013 772.528 185.361 771.998 185.616C771.467 185.872 770.833 186 770.094 186H764.952ZM766.543 184.466H770.094C770.672 184.466 771.124 184.329 771.451 184.054C771.777 183.779 771.941 183.405 771.941 182.932C771.941 182.368 771.777 181.926 771.451 181.604C771.124 181.277 770.672 181.114 770.094 181.114H766.543V184.466ZM766.543 179.665H769.412C769.862 179.665 770.248 179.603 770.57 179.48C770.892 179.352 771.138 179.172 771.309 178.94C771.484 178.704 771.571 178.424 771.571 178.102C771.571 177.643 771.38 177.283 770.996 177.023C770.613 176.758 770.085 176.625 769.412 176.625H766.543V179.665ZM783.484 183.528L788.739 175.091H790.671V186H788.995V177.562L783.768 186H781.808V175.091H783.484V183.528ZM805.332 183.727L809.139 175.091H810.73L806.014 186H804.65L800.02 175.091H801.582L805.332 183.727ZM801.042 175.091V186H799.366V175.091H801.042ZM809.622 186V175.091H811.298V186H809.622ZM818.798 186.227C817.813 186.227 816.949 185.993 816.206 185.524C815.467 185.055 814.889 184.4 814.473 183.557C814.061 182.714 813.855 181.729 813.855 180.602C813.855 179.466 814.061 178.474 814.473 177.626C814.889 176.779 815.467 176.121 816.206 175.652C816.949 175.183 817.813 174.949 818.798 174.949C819.783 174.949 820.645 175.183 821.383 175.652C822.127 176.121 822.704 176.779 823.116 177.626C823.533 178.474 823.741 179.466 823.741 180.602C823.741 181.729 823.533 182.714 823.116 183.557C822.704 184.4 822.127 185.055 821.383 185.524C820.645 185.993 819.783 186.227 818.798 186.227ZM818.798 184.722C819.546 184.722 820.162 184.53 820.645 184.146C821.127 183.763 821.485 183.259 821.717 182.634C821.949 182.009 822.065 181.331 822.065 180.602C822.065 179.873 821.949 179.194 821.717 178.564C821.485 177.934 821.127 177.425 820.645 177.037C820.162 176.649 819.546 176.455 818.798 176.455C818.05 176.455 817.434 176.649 816.951 177.037C816.468 177.425 816.111 177.934 815.879 178.564C815.647 179.194 815.531 179.873 815.531 180.602C815.531 181.331 815.647 182.009 815.879 182.634C816.111 183.259 816.468 183.763 816.951 184.146C817.434 184.53 818.05 184.722 818.798 184.722ZM826.3 175.091H827.976V184.438H832.095V175.091H833.771V184.438H837.891V175.091H839.567V186H826.3V175.091ZM842.628 175.091H844.304V184.438H848.423V175.091H850.099V184.438H854.219V175.091H855.895V186H842.628V175.091ZM863.53 186.227C862.479 186.227 861.572 185.995 860.81 185.531C860.052 185.062 859.467 184.409 859.055 183.571C858.648 182.728 858.445 181.748 858.445 180.631C858.445 179.513 858.648 178.528 859.055 177.676C859.467 176.819 860.04 176.152 860.774 175.673C861.513 175.19 862.375 174.949 863.359 174.949C863.928 174.949 864.489 175.044 865.043 175.233C865.597 175.422 866.101 175.73 866.555 176.156C867.01 176.578 867.372 177.136 867.642 177.832C867.912 178.528 868.047 179.385 868.047 180.403V181.114H859.638V179.665H866.342C866.342 179.049 866.219 178.5 865.973 178.017C865.732 177.534 865.386 177.153 864.936 176.874C864.491 176.594 863.965 176.455 863.359 176.455C862.692 176.455 862.114 176.62 861.626 176.952C861.143 177.278 860.772 177.705 860.511 178.23C860.251 178.756 860.121 179.319 860.121 179.92V180.886C860.121 181.71 860.263 182.409 860.547 182.982C860.836 183.55 861.236 183.983 861.747 184.281C862.259 184.575 862.853 184.722 863.53 184.722C863.97 184.722 864.368 184.66 864.723 184.537C865.083 184.409 865.393 184.22 865.653 183.969C865.914 183.713 866.115 183.396 866.257 183.017L867.876 183.472C867.706 184.021 867.42 184.504 867.017 184.92C866.615 185.332 866.117 185.654 865.526 185.886C864.934 186.114 864.268 186.227 863.53 186.227ZM877.898 179.778V181.341H871.875V179.778H877.898ZM872.273 175.091V186H870.597V175.091H872.273ZM879.176 175.091V186H877.5V175.091H879.176ZM883.913 183.528L889.169 175.091H891.101V186H889.425V177.562L884.197 186H882.237V175.091H883.913V183.528ZM894.171 186V175.091H895.847V179.835H896.955L900.875 175.091H903.034L898.631 180.347L903.091 186H900.932L897.353 181.398H895.847V186H894.171ZM908.896 186.227C907.911 186.227 907.047 185.993 906.303 185.524C905.565 185.055 904.987 184.4 904.57 183.557C904.158 182.714 903.952 181.729 903.952 180.602C903.952 179.466 904.158 178.474 904.57 177.626C904.987 176.779 905.565 176.121 906.303 175.652C907.047 175.183 907.911 174.949 908.896 174.949C909.88 174.949 910.742 175.183 911.481 175.652C912.224 176.121 912.802 176.779 913.214 177.626C913.63 178.474 913.839 179.466 913.839 180.602C913.839 181.729 913.63 182.714 913.214 183.557C912.802 184.4 912.224 185.055 911.481 185.524C910.742 185.993 909.88 186.227 908.896 186.227ZM908.896 184.722C909.644 184.722 910.259 184.53 910.742 184.146C911.225 183.763 911.583 183.259 911.815 182.634C912.047 182.009 912.163 181.331 912.163 180.602C912.163 179.873 912.047 179.194 911.815 178.564C911.583 177.934 911.225 177.425 910.742 177.037C910.259 176.649 909.644 176.455 908.896 176.455C908.147 176.455 907.532 176.649 907.049 177.037C906.566 177.425 906.209 177.934 905.977 178.564C905.745 179.194 905.629 179.873 905.629 180.602C905.629 181.331 905.745 182.009 905.977 182.634C906.209 183.259 906.566 183.763 907.049 184.146C907.532 184.53 908.147 184.722 908.896 184.722ZM916.397 186V175.091H920.858C922.032 175.091 922.965 175.356 923.656 175.886C924.347 176.417 924.693 177.117 924.693 177.989C924.693 178.652 924.496 179.165 924.103 179.53C923.71 179.89 923.206 180.134 922.591 180.261C922.993 180.318 923.384 180.46 923.762 180.688C924.146 180.915 924.463 181.227 924.714 181.625C924.965 182.018 925.091 182.501 925.091 183.074C925.091 183.633 924.949 184.132 924.664 184.572C924.38 185.013 923.973 185.361 923.443 185.616C922.913 185.872 922.278 186 921.539 186H916.397ZM917.988 184.466H921.539C922.117 184.466 922.569 184.329 922.896 184.054C923.223 183.779 923.386 183.405 923.386 182.932C923.386 182.368 923.223 181.926 922.896 181.604C922.569 181.277 922.117 181.114 921.539 181.114H917.988V184.466ZM917.988 179.665H920.858C921.307 179.665 921.693 179.603 922.015 179.48C922.337 179.352 922.583 179.172 922.754 178.94C922.929 178.704 923.017 178.424 923.017 178.102C923.017 177.643 922.825 177.283 922.441 177.023C922.058 176.758 921.53 176.625 920.858 176.625H917.988V179.665Z" fill="black"/>
</g>
<defs>
<clipPath id="clip0_38_307">
<rect width="1130" height="213" rx="48" fill="white"/>
</clipPath>
</defs>
</svg>
