<svg width="487" height="213" viewBox="0 0 487 213" fill="none" xmlns="http://www.w3.org/2000/svg">
<g clip-path="url(#clip0_38_304)">
<rect width="487" height="213" rx="48" fill="#D3E1BA"/>
<path d="M46.328 213V195.08L80.264 164.056C91.016 154.2 99.6773 145.725 106.248 138.632C112.819 131.464 117.597 125.005 120.584 119.256C123.571 113.507 125.064 107.683 125.064 101.784C125.064 93.1973 122.115 86.5147 116.216 81.736C110.392 76.8827 102.253 74.456 91.8 74.456C84.856 74.456 78.2107 75.6507 71.864 78.04C65.5173 80.4293 60.104 83.9013 55.624 88.456L46.44 70.2C52.7867 64.5253 60.104 60.232 68.392 57.32C76.68 54.3333 85.3787 52.84 94.488 52.84C105.315 52.84 114.76 54.7813 122.824 58.664C130.963 62.472 137.272 67.8853 141.752 74.904C146.307 81.848 148.584 89.9867 148.584 99.32C148.584 105.816 147.277 112.312 144.664 118.808C142.125 125.229 137.533 132.472 130.888 140.536C124.317 148.6 114.984 158.269 102.888 169.544L78.808 191.72H152.504V213H46.328Z" fill="#9DB869"/>
<path d="M191.466 182H189.705C189.6 181.493 189.418 181.048 189.158 180.665C188.902 180.281 188.589 179.959 188.22 179.699C187.856 179.434 187.451 179.235 187.006 179.102C186.561 178.97 186.097 178.903 185.614 178.903C184.733 178.903 183.935 179.126 183.22 179.571C182.51 180.016 181.944 180.672 181.523 181.538C181.106 182.405 180.898 183.468 180.898 184.727C180.898 185.987 181.106 187.05 181.523 187.916C181.944 188.783 182.51 189.438 183.22 189.884C183.935 190.329 184.733 190.551 185.614 190.551C186.097 190.551 186.561 190.485 187.006 190.352C187.451 190.22 187.856 190.023 188.22 189.763C188.589 189.498 188.902 189.173 189.158 188.79C189.418 188.402 189.6 187.956 189.705 187.455H191.466C191.333 188.198 191.092 188.863 190.741 189.45C190.391 190.037 189.955 190.537 189.435 190.949C188.914 191.356 188.329 191.666 187.68 191.879C187.036 192.092 186.348 192.199 185.614 192.199C184.373 192.199 183.27 191.896 182.304 191.29C181.338 190.684 180.578 189.822 180.024 188.705C179.47 187.587 179.193 186.261 179.193 184.727C179.193 183.193 179.47 181.867 180.024 180.75C180.578 179.633 181.338 178.771 182.304 178.165C183.27 177.559 184.373 177.256 185.614 177.256C186.348 177.256 187.036 177.362 187.68 177.575C188.329 177.788 188.914 178.101 189.435 178.513C189.955 178.92 190.391 179.417 190.741 180.004C191.092 180.587 191.333 181.252 191.466 182ZM200.051 189.727L203.858 181.091H205.449L200.733 192H199.369L194.738 181.091H196.301L200.051 189.727ZM195.761 181.091V192H194.085V181.091H195.761ZM204.341 192V181.091H206.017V192H204.341ZM213.659 192.227C212.608 192.227 211.701 191.995 210.939 191.531C210.181 191.062 209.596 190.409 209.184 189.571C208.777 188.728 208.574 187.748 208.574 186.631C208.574 185.513 208.777 184.528 209.184 183.676C209.596 182.819 210.169 182.152 210.903 181.673C211.642 181.19 212.503 180.949 213.488 180.949C214.056 180.949 214.618 181.044 215.172 181.233C215.725 181.422 216.23 181.73 216.684 182.156C217.139 182.578 217.501 183.136 217.771 183.832C218.041 184.528 218.176 185.385 218.176 186.403V187.114H209.767V185.665H216.471C216.471 185.049 216.348 184.5 216.102 184.017C215.86 183.534 215.515 183.153 215.065 182.874C214.62 182.594 214.094 182.455 213.488 182.455C212.821 182.455 212.243 182.62 211.755 182.952C211.272 183.278 210.901 183.705 210.64 184.23C210.38 184.756 210.25 185.319 210.25 185.92V186.886C210.25 187.71 210.392 188.409 210.676 188.982C210.965 189.55 211.365 189.983 211.876 190.281C212.387 190.575 212.982 190.722 213.659 190.722C214.099 190.722 214.497 190.66 214.852 190.537C215.212 190.409 215.522 190.22 215.782 189.969C216.043 189.713 216.244 189.396 216.386 189.017L218.005 189.472C217.835 190.021 217.548 190.504 217.146 190.92C216.743 191.332 216.246 191.654 215.654 191.886C215.063 192.114 214.397 192.227 213.659 192.227ZM228.027 185.778V187.341H222.004V185.778H228.027ZM222.402 181.091V192H220.725V181.091H222.402ZM229.305 181.091V192H227.629V181.091H229.305ZM234.042 189.528L239.298 181.091H241.23V192H239.554V183.562L234.326 192H232.366V181.091H234.042V189.528ZM242.815 182.653V181.091H251.679V182.653H248.099V192H246.423V182.653H242.815ZM258.131 192.227C257.08 192.227 256.174 191.995 255.411 191.531C254.654 191.062 254.069 190.409 253.657 189.571C253.25 188.728 253.046 187.748 253.046 186.631C253.046 185.513 253.25 184.528 253.657 183.676C254.069 182.819 254.642 182.152 255.376 181.673C256.114 181.19 256.976 180.949 257.961 180.949C258.529 180.949 259.09 181.044 259.644 181.233C260.198 181.422 260.702 181.73 261.157 182.156C261.612 182.578 261.974 183.136 262.244 183.832C262.513 184.528 262.648 185.385 262.648 186.403V187.114H254.239V185.665H260.944C260.944 185.049 260.821 184.5 260.575 184.017C260.333 183.534 259.987 183.153 259.538 182.874C259.093 182.594 258.567 182.455 257.961 182.455C257.293 182.455 256.716 182.62 256.228 182.952C255.745 183.278 255.373 183.705 255.113 184.23C254.853 184.756 254.722 185.319 254.722 185.92V186.886C254.722 187.71 254.864 188.409 255.148 188.982C255.437 189.55 255.837 189.983 256.349 190.281C256.86 190.575 257.454 190.722 258.131 190.722C258.572 190.722 258.969 190.66 259.325 190.537C259.684 190.409 259.995 190.22 260.255 189.969C260.515 189.713 260.717 189.396 260.859 189.017L262.478 189.472C262.308 190.021 262.021 190.504 261.619 190.92C261.216 191.332 260.719 191.654 260.127 191.886C259.535 192.114 258.87 192.227 258.131 192.227ZM270.823 192V181.091H279.403V192H277.727V182.653H272.499V192H270.823ZM285.674 192.256C284.983 192.256 284.355 192.125 283.792 191.865C283.228 191.6 282.781 191.219 282.45 190.722C282.118 190.22 281.952 189.614 281.952 188.903C281.952 188.278 282.076 187.772 282.322 187.384C282.568 186.991 282.897 186.683 283.309 186.46C283.721 186.238 284.175 186.072 284.673 185.963C285.174 185.849 285.679 185.759 286.185 185.693C286.848 185.608 287.386 185.544 287.798 185.501C288.214 185.454 288.517 185.376 288.707 185.267C288.901 185.158 288.998 184.969 288.998 184.699V184.642C288.998 183.941 288.806 183.397 288.423 183.009C288.044 182.62 287.469 182.426 286.697 182.426C285.897 182.426 285.269 182.601 284.815 182.952C284.36 183.302 284.04 183.676 283.856 184.074L282.265 183.506C282.549 182.843 282.928 182.327 283.401 181.957C283.879 181.583 284.4 181.323 284.964 181.176C285.532 181.025 286.091 180.949 286.64 180.949C286.99 180.949 287.393 180.991 287.847 181.077C288.307 181.157 288.749 181.325 289.175 181.581C289.606 181.837 289.964 182.223 290.248 182.739C290.532 183.255 290.674 183.946 290.674 184.812V192H288.998V190.523H288.913C288.799 190.759 288.61 191.013 288.344 191.283C288.079 191.553 287.727 191.782 287.286 191.972C286.846 192.161 286.308 192.256 285.674 192.256ZM285.93 190.75C286.593 190.75 287.151 190.62 287.606 190.359C288.065 190.099 288.411 189.763 288.643 189.351C288.879 188.939 288.998 188.506 288.998 188.051V186.517C288.927 186.602 288.771 186.68 288.529 186.751C288.292 186.818 288.018 186.877 287.705 186.929C287.397 186.976 287.097 187.019 286.803 187.057C286.514 187.09 286.28 187.118 286.1 187.142C285.665 187.199 285.257 187.291 284.879 187.419C284.504 187.542 284.201 187.729 283.969 187.98C283.742 188.226 283.629 188.562 283.629 188.989C283.629 189.571 283.844 190.011 284.275 190.31C284.71 190.603 285.262 190.75 285.93 190.75ZM293.733 196.091V181.091H295.353V182.824H295.551C295.675 182.634 295.845 182.393 296.063 182.099C296.285 181.801 296.603 181.536 297.015 181.304C297.431 181.067 297.995 180.949 298.705 180.949C299.623 180.949 300.433 181.179 301.134 181.638C301.835 182.097 302.382 182.748 302.775 183.591C303.167 184.434 303.364 185.428 303.364 186.574C303.364 187.729 303.167 188.731 302.775 189.578C302.382 190.421 301.837 191.074 301.141 191.538C300.445 191.998 299.642 192.227 298.733 192.227C298.033 192.227 297.471 192.111 297.05 191.879C296.629 191.643 296.304 191.375 296.077 191.077C295.85 190.774 295.675 190.523 295.551 190.324H295.409V196.091H293.733ZM295.381 186.545C295.381 187.369 295.502 188.096 295.743 188.726C295.985 189.351 296.337 189.841 296.801 190.196C297.266 190.546 297.834 190.722 298.506 190.722C299.207 190.722 299.792 190.537 300.26 190.168C300.734 189.794 301.089 189.292 301.326 188.662C301.567 188.027 301.688 187.322 301.688 186.545C301.688 185.778 301.569 185.087 301.333 184.472C301.101 183.851 300.748 183.361 300.275 183.001C299.806 182.637 299.216 182.455 298.506 182.455C297.824 182.455 297.251 182.627 296.787 182.973C296.323 183.314 295.973 183.792 295.736 184.408C295.499 185.018 295.381 185.731 295.381 186.545ZM310.353 192.227C309.368 192.227 308.504 191.993 307.76 191.524C307.022 191.055 306.444 190.4 306.027 189.557C305.615 188.714 305.409 187.729 305.409 186.602C305.409 185.466 305.615 184.474 306.027 183.626C306.444 182.779 307.022 182.121 307.76 181.652C308.504 181.183 309.368 180.949 310.353 180.949C311.337 180.949 312.199 181.183 312.938 181.652C313.681 182.121 314.259 182.779 314.671 183.626C315.087 184.474 315.296 185.466 315.296 186.602C315.296 187.729 315.087 188.714 314.671 189.557C314.259 190.4 313.681 191.055 312.938 191.524C312.199 191.993 311.337 192.227 310.353 192.227ZM310.353 190.722C311.101 190.722 311.716 190.53 312.199 190.146C312.682 189.763 313.04 189.259 313.272 188.634C313.504 188.009 313.62 187.331 313.62 186.602C313.62 185.873 313.504 185.194 313.272 184.564C313.04 183.934 312.682 183.425 312.199 183.037C311.716 182.649 311.101 182.455 310.353 182.455C309.605 182.455 308.989 182.649 308.506 183.037C308.023 183.425 307.666 183.934 307.434 184.564C307.202 185.194 307.086 185.873 307.086 186.602C307.086 187.331 307.202 188.009 307.434 188.634C307.666 189.259 308.023 189.763 308.506 190.146C308.989 190.53 309.605 190.722 310.353 190.722ZM316.888 192V190.438H317.286C317.613 190.438 317.885 190.374 318.103 190.246C318.321 190.113 318.496 189.884 318.629 189.557C318.766 189.225 318.87 188.766 318.941 188.179C319.017 187.587 319.071 186.834 319.104 185.92L319.303 181.091H326.576V192H324.9V182.653H320.894L320.724 186.545C320.686 187.44 320.605 188.229 320.482 188.911C320.364 189.588 320.182 190.156 319.935 190.615C319.694 191.074 319.372 191.42 318.969 191.652C318.567 191.884 318.063 192 317.457 192H316.888ZM331.1 185.04H334.225C335.504 185.04 336.481 185.364 337.158 186.013C337.835 186.661 338.174 187.483 338.174 188.477C338.174 189.131 338.022 189.725 337.719 190.26C337.416 190.79 336.971 191.214 336.384 191.531C335.797 191.844 335.077 192 334.225 192H329.651V181.091H331.327V190.438H334.225C334.888 190.438 335.433 190.262 335.859 189.912C336.285 189.562 336.498 189.112 336.498 188.562C336.498 187.985 336.285 187.514 335.859 187.149C335.433 186.785 334.888 186.602 334.225 186.602H331.1V185.04Z" fill="black"/>
</g>
<defs>
<clipPath id="clip0_38_304">
<rect width="487" height="213" rx="48" fill="white"/>
</clipPath>
</defs>
</svg>
