<svg width="314" height="46" viewBox="0 0 314 46" fill="none" xmlns="http://www.w3.org/2000/svg">
<g clip-path="url(#clip0_65_508)">
<mask id="mask0_65_508" style="mask-type:luminance" maskUnits="userSpaceOnUse" x="0" y="0" width="314" height="46">
<path d="M313.906 0H0V46H313.906V0Z" fill="white"/>
</mask>
<g mask="url(#mask0_65_508)">
<mask id="mask1_65_508" style="mask-type:luminance" maskUnits="userSpaceOnUse" x="0" y="0" width="53" height="46">
<path d="M52.4005 0H0V46H52.4005V0Z" fill="white"/>
</mask>
<g mask="url(#mask1_65_508)">
<path fill-rule="evenodd" clip-rule="evenodd" d="M24.9641 0.233112C22.789 0.689007 20.2135 1.60124 18.5618 2.50029C17.2907 3.19223 17.0696 3.39653 17.1182 3.8345C17.1731 4.33122 21.282 19.803 21.7445 21.2558L21.9697 21.9629L28.8853 21.8444L31.3247 17.6332C32.6663 15.317 35.1895 10.9619 36.9318 7.95505L40.0996 2.48797L38.6488 1.83707C35.7727 0.546472 33.6481 0.108071 29.836 0.0188782C27.449 -0.0368402 25.9337 0.0296765 24.9641 0.233112ZM36.3103 12.414C33.4432 17.3633 31.1084 21.4311 31.1216 21.4536C31.1348 21.4763 34.4074 20.6256 38.3942 19.5633C48.963 16.7469 51.2247 16.1331 51.2957 16.0623C51.4428 15.9159 49.8764 12.3868 49.057 11.0187C47.4374 8.31377 44.3123 5.04152 42.1405 3.77554L41.523 3.41575L36.3103 12.414ZM12.2603 5.88788C12.6487 7.21429 12.8536 8.18764 12.7628 8.27814C12.7057 8.33516 12.4313 8.25978 12.1533 8.11057C11.345 7.67712 10.0971 7.52508 9.0097 7.72764C8.45559 7.8309 7.95045 7.96696 7.8872 8.02999C7.824 8.09305 8.68792 9.06164 9.80696 10.1825C10.926 11.3033 11.798 12.2596 11.7447 12.3076C11.6912 12.3555 9.06537 13.8763 5.90941 15.6872C2.75347 17.4982 0.106163 19.018 0.0264798 19.0644C-0.0532035 19.1108 0.0531131 19.7553 0.262715 20.4966L0.643809 21.8444L20.1784 21.9567L19.8804 20.9288C19.7165 20.3634 18.9307 17.4712 18.1345 14.5017C17.3381 11.5323 16.5086 8.75328 16.291 8.32628C15.6249 7.01932 14.2987 6.02067 12.6966 5.61963C12.2248 5.50152 12.1589 5.54191 12.2603 5.88788ZM10.5906 16.4543C11.2759 17.4976 10.1004 18.6841 8.97572 18.0837C8.34841 17.7487 8.1925 17.0596 8.60308 16.4348C9.08464 15.7017 10.1027 15.7116 10.5906 16.4543ZM43.2611 20.0012C38.9736 21.1629 34.6084 22.3359 33.5604 22.6082C32.0565 22.9989 31.7144 23.1574 31.9364 23.3605C32.0912 23.5019 34.5564 24.9596 37.4146 26.6001C40.2728 28.2405 44.2039 30.4972 46.1499 31.6145C48.0964 32.7321 49.7091 33.615 49.7345 33.5763C49.7599 33.5379 50.0864 32.8261 50.4605 31.9946C51.8801 28.8379 52.5932 24.4681 52.2574 20.9806C52.0128 18.4396 51.8511 17.8444 51.4118 17.8693C51.2163 17.8803 47.5482 18.8398 43.2611 20.0012ZM12.7301 23.9831C11.6813 24.4446 11.2593 25.0806 11.1529 26.3591C11.0633 27.4387 11.1073 27.5741 11.785 28.2999C12.2061 28.7508 12.807 29.1364 13.2089 29.213L13.9042 29.3456L14.0293 25.4531L16.1946 26.7163C17.3856 27.411 18.4232 27.9838 18.5007 27.9894C18.6772 28.0019 25.4316 24.153 25.7111 23.8807C26.0597 23.5408 13.5099 23.6397 12.7301 23.9831ZM23.5635 27.1301C20.9473 28.6541 18.5358 30.2034 18.2045 30.5732C16.8514 32.0836 17.9624 34.8715 19.9298 34.9025C20.3975 34.9099 20.417 34.8365 20.417 33.0744V31.2388H28.4286V27.7834C28.4286 25.8829 28.4041 24.3351 28.3744 24.3437C28.3448 24.3522 26.1797 25.6062 23.5635 27.1301ZM30.1608 35.2109C30.1608 43.6383 30.2187 45.9241 30.4315 45.9229C31.4516 45.9181 35.2045 45.1934 36.5612 44.739C40.9018 43.2856 45.1031 40.2368 47.8497 36.5471C48.6164 35.5174 48.7474 35.2185 48.5213 35.0114C48.2198 34.735 31.0133 24.824 30.4809 24.6202C30.2011 24.5132 30.1608 25.8481 30.1608 35.2109ZM8.50779 32.9021C8.50779 33.3621 10.7779 36.7097 12.0076 38.0629C16.1674 42.6412 20.836 45.0041 27.2918 45.7991L28.4286 45.9391V40.8016L25.4513 40.683C19.3226 40.4384 14.0657 38.2331 10.0129 34.2072C9.18508 33.3848 8.50779 32.7976 8.50779 32.9021Z" fill="#C3E18A"/>
</g>
<path d="M300.13 37.9137C298.144 37.9137 296.312 37.5651 294.635 36.8678C292.958 36.1705 291.488 35.2021 290.224 33.9625C288.986 32.6971 288.031 31.2122 287.36 29.5078C286.69 27.7776 286.354 25.9053 286.354 23.891C286.354 21.8508 286.69 19.9915 287.36 18.3129C288.031 16.6084 288.986 15.1235 290.224 13.8581C291.488 12.5927 292.958 11.6114 294.635 10.9141C296.312 10.2169 298.144 9.86823 300.13 9.86823C302.142 9.86823 303.974 10.2169 305.625 10.9141C307.302 11.6114 308.759 12.5927 309.997 13.8581C311.261 15.1235 312.229 16.6084 312.9 18.3129C313.57 20.0173 313.906 21.8766 313.906 23.891C313.906 25.9053 313.57 27.7646 312.9 29.4691C312.229 31.1735 311.261 32.6584 309.997 33.9238C308.759 35.1892 307.302 36.1705 305.625 36.8678C303.974 37.5651 302.142 37.9137 300.13 37.9137ZM300.13 32.4131C301.265 32.4131 302.31 32.2065 303.264 31.7933C304.245 31.3801 305.083 30.7861 305.78 30.0114C306.476 29.2366 307.018 28.3328 307.405 27.2998C307.818 26.2668 308.024 25.1305 308.024 23.891C308.024 22.6514 307.818 21.5151 307.405 20.4821C307.018 19.4491 306.476 18.5582 305.78 17.8093C305.083 17.0345 304.245 16.4406 303.264 16.0274C302.31 15.5884 301.265 15.3689 300.13 15.3689C298.995 15.3689 297.95 15.5884 296.996 16.0274C296.041 16.4406 295.203 17.0345 294.48 17.8093C293.758 18.5582 293.203 19.4491 292.816 20.4821C292.455 21.5151 292.275 22.6514 292.275 23.891C292.275 25.1305 292.455 26.2668 292.816 27.2998C293.203 28.3328 293.758 29.2366 294.48 30.0114C295.203 30.7861 296.041 31.3801 296.996 31.7933C297.95 32.2065 298.995 32.4131 300.13 32.4131Z" fill="#C3E18A"/>
<path d="M265.423 37.5264V10.4105H271.227V32.2969H283.494V37.5264H265.423Z" fill="#C3E18A"/>
<path d="M241.956 37.5264V10.4105H247.761V32.2969H260.027V37.5264H241.956Z" fill="#C3E18A"/>
<path d="M220.74 37.5264V32.5293H225.268V15.4076H220.74V10.4105H235.6V15.4076H231.072V32.5293H235.6V37.5264H220.74Z" fill="#C3E18A"/>
<path d="M192.453 37.5264V10.4105H203.559C205.545 10.4105 207.338 10.7462 208.937 11.4177C210.563 12.0633 211.956 12.993 213.117 14.2067C214.303 15.3947 215.206 16.815 215.825 18.4678C216.444 20.1206 216.754 21.9541 216.754 23.9685C216.754 25.9569 216.444 27.7905 215.825 29.4691C215.206 31.1219 214.316 32.5551 213.155 33.7689C211.994 34.9568 210.601 35.8865 208.976 36.5579C207.351 37.2035 205.545 37.5264 203.559 37.5264H192.453ZM198.257 33.304L197.638 32.2969H203.365C204.526 32.2969 205.571 32.1032 206.5 31.7158C207.428 31.3026 208.215 30.7474 208.86 30.0501C209.531 29.3271 210.034 28.449 210.369 27.416C210.705 26.3831 210.872 25.2339 210.872 23.9685C210.872 22.7031 210.705 21.5667 210.369 20.5596C210.034 19.5266 209.531 18.6486 208.86 17.9255C208.215 17.2024 207.428 16.6472 206.5 16.2598C205.571 15.8466 204.526 15.64 203.365 15.64H197.522L198.257 14.7103V33.304Z" fill="#C3E18A"/>
<path d="M162.298 37.5264L172.9 10.4105H178.086L188.65 37.5264H182.69L177.234 22.9226C177.08 22.5094 176.886 21.98 176.654 21.3344C176.447 20.6887 176.228 20.0043 175.996 19.2813C175.764 18.5582 175.545 17.8739 175.338 17.2282C175.132 16.5568 174.977 16.0016 174.874 15.5626L175.919 15.5238C175.764 16.1178 175.583 16.7375 175.377 17.3832C175.196 18.0029 175.003 18.6486 174.796 19.32C174.59 19.9657 174.371 20.5983 174.139 21.2181C173.906 21.8379 173.687 22.4448 173.481 23.0388L168.025 37.5264H162.298ZM167.212 31.832L169.108 27.1449H181.53L183.464 31.832H167.212Z" fill="#C3E18A"/>
<path d="M131.726 37.5264V10.4105H137.028L146.895 26.4864L143.413 26.4476L153.396 10.4105H158.465V37.5264H152.777V28.2295C152.777 25.9053 152.829 23.8135 152.932 21.9541C153.061 20.0947 153.267 18.2483 153.551 16.4148L154.247 18.2354L146.315 30.5537H143.761L135.983 18.3129L136.641 16.4148C136.925 18.145 137.118 19.9269 137.221 21.7605C137.35 23.5682 137.415 25.7245 137.415 28.2295V37.5264H131.726Z" fill="#C3E18A"/>
<path d="M104.632 37.5264V10.4105H116.627C118.304 10.4105 119.826 10.7979 121.194 11.5727C122.561 12.3216 123.631 13.3417 124.405 14.6329C125.205 15.9241 125.605 17.3961 125.605 19.0488C125.605 20.6758 125.205 22.1607 124.405 23.5036C123.631 24.8207 122.561 25.8666 121.194 26.6413C119.826 27.416 118.304 27.8034 116.627 27.8034H110.243V37.5264H104.632ZM119.994 37.5264L113.106 25.2855L119.065 24.3171L126.727 37.5651L119.994 37.5264ZM110.243 23.0775H116.357C117.053 23.0775 117.659 22.9226 118.175 22.6127C118.717 22.2769 119.13 21.825 119.414 21.2569C119.697 20.6629 119.839 20.0043 119.839 19.2813C119.839 18.5065 119.671 17.8351 119.336 17.267C119.001 16.6988 118.511 16.2598 117.866 15.9499C117.221 15.6142 116.473 15.4463 115.621 15.4463H110.243V23.0775Z" fill="#C3E18A"/>
<path d="M74.4764 37.5264L85.0791 10.4105H90.2643L100.828 37.5264H94.8691L89.413 22.9226C89.2582 22.5094 89.0647 21.98 88.8326 21.3344C88.6262 20.6887 88.4069 20.0043 88.1747 19.2813C87.9426 18.5582 87.7233 17.8739 87.5169 17.2282C87.3105 16.5568 87.1558 16.0016 87.0526 15.5626L88.0973 15.5238C87.9426 16.1178 87.762 16.7375 87.5556 17.3832C87.375 18.0029 87.1815 18.6486 86.9752 19.32C86.7688 19.9657 86.5495 20.5983 86.3173 21.2181C86.0852 21.8379 85.8659 22.4448 85.6595 23.0388L80.2034 37.5264H74.4764ZM79.3908 31.832L81.2869 27.1449H93.7082L95.643 31.832H79.3908Z" fill="#C3E18A"/>
</g>
</g>
<defs>
<clipPath id="clip0_65_508">
<rect width="314" height="46" fill="white"/>
</clipPath>
</defs>
</svg>
